<?xml version="1.0" encoding="utf-8"?>
<!-- Generator: Adobe Illustrator 16.0.0, SVG Export Plug-In . SVG Version: 6.00 Build 0)  -->
<!DOCTYPE svg PUBLIC "-//W3C//DTD SVG 1.1//EN" "http://www.w3.org/Graphics/SVG/1.1/DTD/svg11.dtd">
<svg version="1.1" id="Слой_1" xmlns="http://www.w3.org/2000/svg" xmlns:xlink="http://www.w3.org/1999/xlink" x="0px" y="0px"
	 width="267.162px" height="275.366px" viewBox="0 0 267.162 275.366" enable-background="new 0 0 267.162 275.366"
	 xml:space="preserve">
<g>
	<g>
		
			<path fill="#FFFFFF" stroke="#212529" stroke-width="1.5" stroke-linecap="round" stroke-linejoin="round" stroke-miterlimit="10" d="
			M68.108,112.953c0,0-38.952,45.974-55.233,71.2c-16.286,25.22-17.562,54.596,4.789,61.621
			c22.35,7.018,77.583-15.008,77.583-15.008l1.917-12.771l-40.87-12.777l40.87-66.726L68.108,112.953z"/>
		
			<line fill="#FFFFFF" stroke="#212529" stroke-width="1.5" stroke-linecap="round" stroke-linejoin="round" stroke-miterlimit="10" x1="56.293" y1="205.219" x2="31.072" y2="197.047"/>
		<g>
			<path fill="#473293" d="M171.409,192.333H94.214l-3.115,13.266c0,0-18.575,19.734-27.972,69.734h136.3
				c-10.415-40-25.31-69.734-25.31-69.734L171.409,192.333z"/>
		</g>
		
			<polygon fill="#FFFFFF" stroke="#212529" stroke-width="1.5" stroke-linecap="round" stroke-linejoin="round" stroke-miterlimit="10" points="
			228.242,205.91 177.744,148.462 209.435,120.771 		"/>
		<path fill="#473293" d="M173.652,147.735l3.244,4.058c1.079,1.354,3.082,1.498,4.353,0.321l31.628-29.482
			c0.644-0.596,0.71-1.586,0.149-2.261l-6.072-7.359c-0.65-0.785-1.846-0.808-2.521-0.043L173.652,147.735z"/>
		<path fill="#EE7177" d="M150.323,73.002c10.299,6.581,28.017,9.221,54.84,41.305l-27.419,29.22l-7.305,36.153
			c0,0,6.464,7.905,3.593,13.649c-2.874,5.745-11.733,3.114-22.751,3.114c-11.014,0-46.693,0-54.834,0
			c-8.146,0-11.732-9.338-5.989-15.091l-1.675-40.707l-25.864-28.251c0,0,14.69-16.888,31.213-26.463
			c16.521-9.577,30.569-12.93,30.569-12.93H150.323z"/>
		<path fill="#473293" d="M88.783,140.646c-1.877-7.658-0.133-17.008-0.133-17.008l-18.48-17.199
			c-1.083-1.004-2.774-0.974-3.818,0.071c-1.571,1.578-2.853,2.933-3.792,3.942c-0.999,1.076-0.964,2.741,0.068,3.788
			L88.783,140.646z"/>
		<path fill="none" stroke="#21226E" stroke-width="1.8614" stroke-miterlimit="10" d="M134.839,88.207
			c0,0-4.469,33.684-5.589,48.374c-1.117,14.682,0.48,59.862,0.48,59.862"/>
		<path fill="none" stroke="#21226E" stroke-width="1.8614" stroke-miterlimit="10" d="M88.783,140.646c0,0-3.113-7.577,2.316-29.13
			"/>
		<g>
			
				<line fill="none" stroke="#0B0E52" stroke-width="1.8614" stroke-miterlimit="10" x1="174.118" y1="205.219" x2="94.049" y2="205.219"/>
			<path fill="none" stroke="#0B0E52" stroke-width="1.8614" stroke-miterlimit="10" d="M131.887,205.219
				c0,0-5.51,62.329-5.51,70.147"/>
			<path fill="none" stroke="#0B0E52" stroke-width="1.8614" stroke-miterlimit="10" d="M123.505,205.219
				c0,0-8.777,41.195,4.353,46.984"/>
			<path fill="none" stroke="#0B0E52" stroke-width="1.8614" stroke-miterlimit="10" d="M162.056,205.219
				c0,0-2.572,34.215,29.005,41.938"/>
			<path fill="none" stroke="#0B0E52" stroke-width="1.8614" stroke-miterlimit="10" d="M100.036,205.219
				c0,0-8.338,37.99-30.67,44.062"/>
			
				<line fill="none" stroke="#0B0E52" stroke-width="1.8614" stroke-miterlimit="10" x1="104.348" y1="264.93" x2="148.647" y2="258.704"/>
			
				<line fill="none" stroke="#0B0E52" stroke-width="1.8614" stroke-miterlimit="10" x1="107.463" y1="271.636" x2="155.592" y2="270.194"/>
		</g>
		<path fill="#473293" d="M150.323,73.002h-25.622c0,0-2.784,0.668-7.314,2.239c-2.637,31.204,17.772,15.839,17.772,15.839
			c13.146,12.872,19.889-6.007,22.121-14.391C154.669,75.438,152.349,74.295,150.323,73.002z"/>
		
			<line fill="none" stroke="#21226E" stroke-width="1.8614" stroke-miterlimit="10" x1="177.744" y1="143.526" x2="183.848" y2="119.339"/>
		<rect x="143.588" y="120.771" fill="#473293" width="24.294" height="3.671"/>
		<path fill="#FFFFFF" d="M127.858,107.507c0,1.005-0.812,1.811-1.808,1.811s-1.809-0.806-1.809-1.811
			c0-0.997,0.813-1.803,1.809-1.803S127.858,106.51,127.858,107.507z"/>
		<path fill="#FFFFFF" d="M125.337,135.024c0,0.996-0.81,1.803-1.807,1.803c-1.001,0-1.808-0.807-1.808-1.803
			c0-0.997,0.807-1.805,1.808-1.805C124.528,133.22,125.337,134.027,125.337,135.024z"/>
		<path fill="#FFFFFF" d="M125.337,162.643c0,0.997-0.81,1.805-1.807,1.805c-1.001,0-1.808-0.808-1.808-1.805
			c0-0.995,0.807-1.803,1.808-1.803C124.528,160.84,125.337,161.647,125.337,162.643z"/>
		<path fill="none" stroke="#21226E" stroke-width="1.8614" stroke-miterlimit="10" d="M164.933,181.789
			c-0.658,0.22-43.21,3.506-43.21,3.506"/>
		<g>
			<polygon fill="#0B0E52" points="202.944,98.605 182.094,98.605 188.032,61.548 208.881,61.548 			"/>
			<polygon fill="#2E309A" points="185.357,98.605 182.094,98.605 188.032,61.548 191.293,61.548 			"/>
			<path fill="#FFFFFF" d="M195.973,65.353c-0.131,0.813-0.895,1.469-1.709,1.469s-1.368-0.655-1.235-1.469
				c0.13-0.815,0.894-1.469,1.709-1.469C195.547,63.884,196.105,64.537,195.973,65.353z"/>
		</g>
		<path fill="#362B59" d="M164.376,23.022c-0.512-4.668-8.38-11.556-20.336-11.635c-11.954-0.087-20.452,6.37-22.064,17.584
			c-1.614,11.22,3.274,18.825,9.113,23.777L164.376,23.022z"/>
		<circle fill="#362B59" cx="122.495" cy="11.308" r="11.313"/>
		<path fill="#362B59" d="M175.237,19.779c0,4.676-3.792,8.471-8.472,8.471c-4.675,0-8.468-3.795-8.468-8.471
			c0-4.677,3.793-8.472,8.468-8.472C171.445,11.308,175.237,15.103,175.237,19.779z"/>
		
			<path fill="#FFFFFF" stroke="#212529" stroke-width="1.5" stroke-linecap="round" stroke-linejoin="round" stroke-miterlimit="10" d="
			M131.286,44.75c0,0-1.782,18.298-4.158,24.303c-1.707,4.307-3.597,4.691-3.597,4.691s0.851,8.559,10.987,12.188
			c0,0,10.656-1.558,15.805-12.93c0,0-2.034-2.151-2.034-4.071c0-1.913,1.436-13.649,1.436-13.649L131.286,44.75z"/>
		<path fill="#212529" d="M148.469,66.457c0.382-4.05,1.255-11.176,1.255-11.176L131.286,44.75c0,0-0.229,2.43-0.639,5.812
			C131.997,55.796,136.289,66.799,148.469,66.457z"/>
		<polygon fill="#4749D4" points="128.007,43.653 128.872,55.199 124.501,59.396 122.781,54.103 		"/>
		
			<path fill="#FFFFFF" stroke="#212529" stroke-width="1.5" stroke-linecap="round" stroke-linejoin="round" stroke-miterlimit="10" d="
			M162.592,32.12c0,0-1.447,5.73-4.887,11.977c0,0,1.57,6.885-2.487,12.579c-3.61,5.069-9.876,5.949-15.612,3.738
			c-5.041-1.941-10.196-6.995-9.687-14.144c0,0-3.57-0.261-4.206-4.341c-0.637-4.079-0.019-8.406,3.311-9.557
			c3.317-1.147,4.847,3.695,4.847,3.695l4.462-7.774L162.592,32.12z"/>
		<path fill="#362B59" d="M134.129,35.616l-2.385,12.306c0,0,7.226-3.571,9.689-17.249l22.942,5.272c0,0,1.782-6.633,0-12.923
			l-30.166,2.895L134.129,35.616z"/>
		<g>
			<path fill="#212529" d="M147.716,39.581c-0.206,1.089-0.911,1.882-1.581,1.752c-0.67-0.124-1.047-1.113-0.844-2.202
				c0.205-1.1,0.912-1.885,1.582-1.761C147.543,37.493,147.92,38.482,147.716,39.581z"/>
			<path fill="#212529" d="M155.133,40.961c-0.202,1.099-0.907,1.884-1.576,1.762c-0.67-0.133-1.048-1.122-0.844-2.211
				c0.203-1.099,0.911-1.883,1.581-1.762C154.964,38.875,155.341,39.864,155.133,40.961z"/>
		</g>
		
			<path fill="#FFFFFF" stroke="#212529" stroke-width="1.5" stroke-linecap="round" stroke-linejoin="round" stroke-miterlimit="10" d="
			M144.652,34.345c0,0,2.742-0.931,5.353,1.354"/>
		
			<path fill="#FFFFFF" stroke="#212529" stroke-width="1.5" stroke-linecap="round" stroke-linejoin="round" stroke-miterlimit="10" d="
			M152.479,36.134c0,0,4.016-1.593,5.48,0.763"/>
		
			<path fill="#FFFFFF" stroke="#212529" stroke-width="1.5" stroke-linecap="round" stroke-linejoin="round" stroke-miterlimit="10" d="
			M151.332,38.875l-1.146,5.476c0,0,2.102,0.777,1.527,1.92c-0.57,1.142-2.93,0.502-2.93,0.502"/>
		
			<path fill="#FFFFFF" stroke="#212529" stroke-width="1.5" stroke-linecap="round" stroke-linejoin="round" stroke-miterlimit="10" d="
			M152.981,50.299l-11.151-3.825c0,0-0.447,4.531,4.523,6.437C150.367,54.452,152.981,50.299,152.981,50.299z"/>
		
			<path fill="#FFFFFF" stroke="#212529" stroke-width="1.5" stroke-linecap="round" stroke-linejoin="round" stroke-miterlimit="10" d="
			M131.745,38.875c0,0,0.021-3.941-2.146-3.95c-2.165-0.007-2.482,4.743-1.846,5.812"/>
		
			<path fill="#FFFFFF" stroke="#212529" stroke-width="1.5" stroke-linecap="round" stroke-linejoin="round" stroke-miterlimit="10" d="
			M83.451,213.705c0,0,1.307-4.813,5.196-5.454c3.887-0.632,18.493,0.168,18.812,2.002c0.322,1.831-19.076,3.452-19.076,3.452
			s17.002,1.731,16.761,4.452c-0.236,2.713-17.317,0-17.317,0s14.285,3.752,14.046,5.984c-0.236,2.231-14.365-1.52-14.365-1.52
			s7.661,3.672,7.265,5.431c-0.4,1.754-9.341-2.871-9.341-2.871l-7.12,0.778c0,0-0.145-3.818,1.214-5.171
			C79.524,220.789,80.892,215.372,83.451,213.705z"/>
		
			<path fill="#FFFFFF" stroke="#212529" stroke-width="1.5" stroke-linecap="round" stroke-linejoin="round" stroke-miterlimit="10" d="
			M200.55,106.604c0,0,6.494,60.51,13.526,75.97c7.028,15.454,16.747,35.743,38.371,27.198c21.622-8.538,14.482-36.235,3.014-52.547
			c-11.464-16.319-45.352-55.282-45.352-55.282s1.728-14.274-0.379-20.259c-2.102-5.984-5.899-13.424-5.899-13.424
			s-9.49,3.6-9.33,7.613c0.158,4.008,4.418,11.693,4.418,11.693s-6.004-8.385-7.626-6.691c-1.625,1.696,4.193,8.787,4.193,8.787
			S192.645,102.489,200.55,106.604z"/>
		
			<line fill="#FFFFFF" stroke="#212529" stroke-width="1.5" stroke-linecap="round" stroke-linejoin="round" stroke-miterlimit="10" x1="201.872" y1="83.633" x2="196.534" y2="72.581"/>
		
			<line fill="#FFFFFF" stroke="#212529" stroke-width="1.5" stroke-linecap="round" stroke-linejoin="round" stroke-miterlimit="10" x1="205.477" y1="81.343" x2="200.18" y2="70.398"/>
	</g>
	<path fill="#F0A955" d="M33.111,39.437c0,0,0.733-19.574,3.664-20.783c2.93-1.204,5.129,20.783,5.129,20.783s20.155-3.663,21.621,0
		c1.467,3.667-15.206,9.896-15.206,9.896s11.542,18.683,8.243,22.35c-3.298,3.661-17.953-15.389-17.953-15.389
		S23.95,74.085,18.821,72.151c-5.13-1.937,8.43-20.988,8.43-20.988S8.193,44.935,7.828,40.536
		C7.461,36.138,33.111,39.437,33.111,39.437z"/>
</g>
</svg>
