<?xml version="1.0" encoding="utf-8"?>
<!-- Generator: Adobe Illustrator 16.0.0, SVG Export Plug-In . SVG Version: 6.00 Build 0)  -->
<!DOCTYPE svg PUBLIC "-//W3C//DTD SVG 1.1//EN" "http://www.w3.org/Graphics/SVG/1.1/DTD/svg11.dtd">
<svg version="1.1" id="Слой_1" xmlns="http://www.w3.org/2000/svg" xmlns:xlink="http://www.w3.org/1999/xlink" x="0px" y="0px"
	 width="267.162px" height="275.367px" viewBox="0 0 267.162 275.367" enable-background="new 0 0 267.162 275.367"
	 xml:space="preserve">
<g>
	<g>
		
			<path fill="#FFFFFF" stroke="#212529" stroke-width="1.5" stroke-linecap="round" stroke-linejoin="round" stroke-miterlimit="10" d="
			M169.996,138.492l40.87,66.727l-40.87,12.777l1.917,12.771c0,0,55.232,22.026,77.583,15.008
			c22.351-7.024,21.075-36.401,4.789-61.621c-16.281-25.226-55.233-71.2-55.233-71.2L169.996,138.492z"/>
		
			<line fill="none" stroke="#212529" stroke-width="1.5" stroke-linecap="round" stroke-linejoin="round" stroke-miterlimit="10" x1="236.089" y1="197.046" x2="210.867" y2="205.218"/>
		<g>
			<path fill="#473293" d="M93.043,205.599c0,0-14.896,29.734-25.31,69.734h136.3c-9.397-50-27.972-69.734-27.972-69.734
				l-3.115-13.266H95.751L93.043,205.599z"/>
		</g>
		
			<polygon fill="#FFFFFF" stroke="#212529" stroke-width="1.5" stroke-linecap="round" stroke-linejoin="round" stroke-miterlimit="10" points="
			57.726,120.771 89.416,148.462 38.918,205.91 		"/>
		<path fill="#473293" d="M62.728,112.969c-0.676-0.765-1.871-0.742-2.521,0.043l-6.072,7.359c-0.561,0.675-0.494,1.665,0.149,2.261
			l31.628,29.483c1.271,1.176,3.273,1.032,4.354-0.322l3.244-4.058L62.728,112.969z"/>
		<path fill="#EE7177" d="M116.837,73.001h25.622c0,0,14.048,3.353,30.569,12.93c16.523,9.575,31.213,26.463,31.213,26.463
			l-25.864,28.251l-1.675,40.707c5.743,5.753,2.157,15.091-5.988,15.091c-8.142,0-43.82,0-54.835,0
			c-11.018,0-19.877,2.631-22.751-3.113c-2.871-5.744,3.594-13.649,3.594-13.649l-7.306-36.153l-27.419-29.22
			C88.82,82.223,106.538,79.583,116.837,73.001L116.837,73.001z"/>
		<path fill="#473293" d="M204.532,114.24c1.031-1.047,1.066-2.712,0.068-3.788c-0.939-1.009-2.221-2.364-3.793-3.942
			c-1.043-1.045-2.734-1.075-3.817-0.071l-18.479,17.199c0,0,1.743,9.35-0.134,17.008L204.532,114.24z"/>
		<path fill="none" stroke="#21226E" stroke-width="1.8614" stroke-miterlimit="10" d="M137.431,196.443
			c0,0,1.597-45.18,0.479-59.862c-1.12-14.69-5.589-48.374-5.589-48.374"/>
		<path fill="none" stroke="#21226E" stroke-width="1.8614" stroke-miterlimit="10" d="M176.062,111.516
			c5.429,21.553,2.315,29.13,2.315,29.13"/>
		<g>
			
				<line fill="none" stroke="#0B0E52" stroke-width="1.8614" stroke-miterlimit="10" x1="173.111" y1="205.218" x2="93.042" y2="205.218"/>
			<path fill="none" stroke="#0B0E52" stroke-width="1.8614" stroke-miterlimit="10" d="M140.783,275.367
				c0-7.818-5.511-70.148-5.511-70.148"/>
			<path fill="none" stroke="#0B0E52" stroke-width="1.8614" stroke-miterlimit="10" d="M139.302,252.203
				c13.131-5.789,4.354-46.984,4.354-46.984"/>
			<path fill="none" stroke="#0B0E52" stroke-width="1.8614" stroke-miterlimit="10" d="M76.099,247.158
				c31.578-7.724,29.006-41.939,29.006-41.939"/>
			<path fill="none" stroke="#0B0E52" stroke-width="1.8614" stroke-miterlimit="10" d="M197.794,249.281
				c-22.332-6.072-30.67-44.063-30.67-44.063"/>
			
				<line fill="none" stroke="#0B0E52" stroke-width="1.8614" stroke-miterlimit="10" x1="118.513" y1="258.705" x2="162.812" y2="264.93"/>
			
				<line fill="none" stroke="#0B0E52" stroke-width="1.8614" stroke-miterlimit="10" x1="111.568" y1="270.194" x2="159.697" y2="271.636"/>
		</g>
		<path fill="#473293" d="M109.88,76.689c2.232,8.384,8.975,27.263,22.121,14.391c0,0,20.409,15.365,17.771-15.839
			c-4.529-1.571-7.313-2.239-7.313-2.239h-25.622C114.812,74.295,112.491,75.438,109.88,76.689z"/>
		
			<line fill="none" stroke="#21226E" stroke-width="1.8614" stroke-miterlimit="10" x1="83.312" y1="119.339" x2="89.416" y2="143.526"/>
		<rect x="99.278" y="120.771" fill="#473293" width="24.294" height="3.671"/>
		<path fill="#FFFFFF" d="M141.11,105.704c0.996,0,1.809,0.806,1.809,1.803c0,1.005-0.813,1.811-1.809,1.811
			s-1.809-0.806-1.809-1.811C139.302,106.51,140.114,105.704,141.11,105.704z"/>
		<path fill="#FFFFFF" d="M143.63,133.219c1.002,0,1.809,0.808,1.809,1.805c0,0.996-0.807,1.803-1.809,1.803
			c-0.996,0-1.807-0.807-1.807-1.803C141.823,134.027,142.632,133.22,143.63,133.219z"/>
		<path fill="#FFFFFF" d="M143.63,160.839c1.002,0,1.809,0.809,1.809,1.804c0,0.997-0.807,1.806-1.809,1.806
			c-0.996,0-1.807-0.809-1.807-1.806C141.823,161.647,142.632,160.839,143.63,160.839z"/>
		<path fill="none" stroke="#21226E" stroke-width="1.8614" stroke-miterlimit="10" d="M145.437,185.294
			c0,0-42.551-3.285-43.209-3.506"/>
		<g>
			<polygon fill="#0B0E52" points="58.279,61.548 79.128,61.548 85.066,98.605 64.216,98.605 			"/>
			<polygon fill="#2E309A" points="75.867,61.548 79.128,61.548 85.066,98.605 81.804,98.605 			"/>
			<path fill="#FFFFFF" d="M72.423,63.884c0.814,0,1.578,0.654,1.709,1.469c0.133,0.814-0.422,1.469-1.236,1.469
				c-0.813,0-1.577-0.656-1.709-1.469C71.056,64.537,71.613,63.884,72.423,63.884z"/>
		</g>
		<path fill="#362B59" d="M136.071,52.748c5.839-4.952,10.727-12.557,9.113-23.777c-1.612-11.214-10.11-17.671-22.064-17.584
			c-11.956,0.079-19.824,6.967-20.336,11.635L136.071,52.748z"/>
		<circle fill="#362B59" cx="144.665" cy="11.308" r="11.313"/>
		<path fill="#362B59" d="M100.396,11.307c4.675,0,8.468,3.795,8.468,8.472c0,4.676-3.793,8.471-8.468,8.471
			c-4.68,0-8.473-3.795-8.473-8.471C91.923,15.103,95.716,11.308,100.396,11.307z"/>
		
			<path fill="#FFFFFF" stroke="#212529" stroke-width="1.5" stroke-linecap="round" stroke-linejoin="round" stroke-miterlimit="10" d="
			M117.435,55.282c0,0,1.437,11.736,1.437,13.649c0,1.92-2.034,4.071-2.034,4.071c5.149,11.372,15.805,12.93,15.805,12.93
			c10.137-3.629,10.987-12.188,10.987-12.188s-1.89-0.384-3.597-4.691c-2.376-6.005-4.158-24.303-4.158-24.303L117.435,55.282z"/>
		<path fill="#212529" d="M136.513,50.562c-0.41-3.382-0.639-5.812-0.639-5.812l-18.438,10.531c0,0,0.873,7.126,1.255,11.176
			C130.871,66.799,135.163,55.796,136.513,50.562z"/>
		<polygon fill="#4749D4" points="144.379,54.103 142.659,59.396 138.288,55.199 139.153,43.653 		"/>
		
			<path fill="#FFFFFF" stroke="#212529" stroke-width="1.5" stroke-linecap="round" stroke-linejoin="round" stroke-miterlimit="10" d="
			M128.827,28.293l4.462,7.774c0,0,1.53-4.842,4.847-3.695c3.33,1.151,3.948,5.478,3.312,9.557c-0.636,4.08-4.206,4.341-4.206,4.341
			c0.509,7.149-4.646,12.203-9.688,14.144c-5.735,2.211-12.002,1.331-15.611-3.738c-4.057-5.694-2.487-12.579-2.487-12.579
			c-3.44-6.247-4.887-11.977-4.887-11.977L128.827,28.293z"/>
		<path fill="#362B59" d="M132.951,25.917l-30.166-2.895c-1.782,6.29,0,12.923,0,12.923l22.942-5.272
			c2.463,13.678,9.688,17.249,9.688,17.249l-2.385-12.306L132.951,25.917z"/>
		<g>
			<path fill="#212529" d="M120.287,37.37c0.67-0.124,1.377,0.661,1.582,1.761c0.203,1.089-0.174,2.078-0.844,2.202
				c-0.671,0.13-1.375-0.663-1.581-1.752C119.24,38.482,119.617,37.493,120.287,37.37z"/>
			<path fill="#212529" d="M112.866,38.75c0.67-0.121,1.378,0.663,1.581,1.762c0.204,1.089-0.175,2.078-0.845,2.211
				c-0.668,0.122-1.373-0.663-1.575-1.762C111.819,39.864,112.196,38.875,112.866,38.75z"/>
		</g>
		
			<path fill="#FFFFFF" stroke="#212529" stroke-width="1.5" stroke-linecap="round" stroke-linejoin="round" stroke-miterlimit="10" d="
			M117.155,35.699c2.611-2.285,5.354-1.354,5.354-1.354"/>
		
			<path fill="#FFFFFF" stroke="#212529" stroke-width="1.5" stroke-linecap="round" stroke-linejoin="round" stroke-miterlimit="10" d="
			M109.201,36.897c1.464-2.356,5.479-0.763,5.479-0.763"/>
		
			<path fill="#FFFFFF" stroke="#212529" stroke-width="1.5" stroke-linecap="round" stroke-linejoin="round" stroke-miterlimit="10" d="
			M118.377,46.773c0,0-2.36,0.64-2.93-0.502c-0.575-1.143,1.526-1.92,1.526-1.92l-1.146-5.476"/>
		
			<path fill="#FFFFFF" stroke="#212529" stroke-width="1.5" stroke-linecap="round" stroke-linejoin="round" stroke-miterlimit="10" d="
			M120.808,52.911c4.97-1.906,4.522-6.437,4.522-6.437l-11.151,3.825C114.179,50.299,116.793,54.452,120.808,52.911z"/>
		
			<path fill="#FFFFFF" stroke="#212529" stroke-width="1.5" stroke-linecap="round" stroke-linejoin="round" stroke-miterlimit="10" d="
			M139.407,40.737c0.636-1.069,0.318-5.819-1.846-5.812c-2.168,0.009-2.146,3.95-2.146,3.95"/>
		
			<path fill="#FFFFFF" stroke="#212529" stroke-width="1.5" stroke-linecap="round" stroke-linejoin="round" stroke-miterlimit="10" d="
			M187.634,220.789c1.359,1.353,1.215,5.17,1.215,5.17l-7.121-0.777c0,0-8.94,4.625-9.34,2.871c-0.396-1.76,7.265-5.432,7.265-5.432
			s-14.13,3.752-14.365,1.521c-0.239-2.231,14.046-5.983,14.046-5.983s-17.081,2.713-17.316,0
			c-0.241-2.722,16.761-4.453,16.761-4.453s-19.398-1.621-19.076-3.451c0.319-1.834,14.925-2.635,18.812-2.002
			c3.89,0.641,5.196,5.453,5.196,5.453C186.269,215.373,187.636,220.789,187.634,220.789z"/>
		
			<path fill="#FFFFFF" stroke="#212529" stroke-width="1.5" stroke-linecap="round" stroke-linejoin="round" stroke-miterlimit="10" d="
			M71.675,89.662c0,0,5.817-7.091,4.192-8.787c-1.622-1.694-7.626,6.691-7.626,6.691s4.26-7.685,4.418-11.693
			c0.16-4.013-9.33-7.613-9.33-7.613s-3.797,7.44-5.898,13.424c-2.107,5.985-0.379,20.259-0.379,20.259
			s-33.889,38.963-45.353,55.282c-11.468,16.312-18.608,44.009,3.014,52.547c21.624,8.545,31.343-11.744,38.371-27.198
			c7.032-15.459,13.526-75.97,13.526-75.97C74.515,102.489,71.675,89.662,71.675,89.662z"/>
		
			<line fill="none" stroke="#212529" stroke-width="1.5" stroke-linecap="round" stroke-linejoin="round" stroke-miterlimit="10" x1="70.626" y1="72.581" x2="65.288" y2="83.633"/>
		
			<line fill="none" stroke="#212529" stroke-width="1.5" stroke-linecap="round" stroke-linejoin="round" stroke-miterlimit="10" x1="66.979" y1="70.398" x2="61.683" y2="81.343"/>
	</g>
	<path fill="#F0A955" d="M259.332,40.536c-0.364,4.399-19.423,10.627-19.423,10.627s13.561,19.051,8.43,20.988
		c-5.129,1.934-19.787-15.857-19.787-15.857s-14.656,19.05-17.953,15.389c-3.299-3.667,8.242-22.35,8.242-22.35
		s-16.673-6.229-15.205-9.896c1.465-3.663,21.621,0,21.621,0s2.198-21.987,5.129-20.783c2.93,1.209,3.664,20.783,3.664,20.783
		S259.699,36.138,259.332,40.536z"/>
</g>
</svg>
