<?xml version="1.0" encoding="utf-8"?>
<!-- Generator: Adobe Illustrator 16.0.0, SVG Export Plug-In . SVG Version: 6.00 Build 0)  -->
<!DOCTYPE svg PUBLIC "-//W3C//DTD SVG 1.1//EN" "http://www.w3.org/Graphics/SVG/1.1/DTD/svg11.dtd">
<svg version="1.1" id="Слой_1" xmlns="http://www.w3.org/2000/svg" xmlns:xlink="http://www.w3.org/1999/xlink" x="0px" y="0px"
	 width="254.658px" height="203.938px" viewBox="0 0 254.658 203.938" enable-background="new 0 0 254.658 203.938"
	 xml:space="preserve">
<g>
	<rect x="95.855" y="180.217" fill="#EE7177" width="64.939" height="14.653"/>
	<g>
		<path fill="#473293" d="M89.002,191.687c0,0-0.588,4-1.602,12h81.945c-2.353-8-3.935-12-3.935-12H89.002z"/>
	</g>
	<path fill="#EE7177" d="M145.752,67.315c6.851,1.489,24.724,12.361,24.724,12.361l-6.85,102.326H94.215V81.465
		c0,0,10.739-7.635,19.744-12.005L145.752,67.315z"/>
	<path fill="#362B59" d="M107.399,30.259c0,0-4.247-9.009,3.312-15.785c8.764-7.861,24.616-6.26,30.404,5.022
		c1.932,3.761,1.434,9.385,1.434,9.385s5.214,1.378,5.435,9.645c0,0,5.065,1.192,4.845,11.02c0,0,5.509,4.356,4.17,12.958h-56.452
		c0,0-0.781-7.752,1.903-11.525c0,0-0.448-5.787,2.792-10.478C105.24,40.499,104.942,33.684,107.399,30.259z"/>
	
		<path fill="#FFFFFF" stroke="#212529" stroke-width="1.5" stroke-linecap="round" stroke-linejoin="round" stroke-miterlimit="10" d="
		M128.103,22.362c0,0-1.265,5.665,5.735,11.918l0.668,2.756c0,0,0.896-3.65,2.16-5.286c1.265-1.641,5.286-1.192,5.733,3.2
		c0.447,4.392-1.488,7.67-5.883,7.517l4.467,24.729l5.207,0.49c0,0-7.043,10.72-20.546,11.872
		c-6.999,0.593-12.954-9.039-12.954-9.039l5.955-2.876l-0.895-12.958c0,0-5.215,0.446-7.672-4.989
		c-2.476-5.482,0.372-11.246,0.372-11.246l-0.247-8.353C110.204,30.098,122.22,29.215,128.103,22.362z"/>
	<path fill="#212529" d="M117.317,53.904c5.285,0.071,11.689-2.531,14.224-9.607c0,0,0.229,13.04-13.886,14.523L117.317,53.904z"/>
	<circle fill="#FC9E24" cx="141.115" cy="41.784" r="2.065"/>
	<circle fill="#362B59" cx="137.542" cy="8.21" r="8.21"/>
	<g>
		<path fill="#212529" d="M115.867,36.054c0.097,1.292-0.429,2.384-1.167,2.436c-0.738,0.052-1.414-0.951-1.508-2.242
			c-0.091-1.292,0.428-2.381,1.166-2.436C115.096,33.757,115.772,34.759,115.867,36.054z"/>
		<path fill="#212529" d="M123.668,35.488c0.094,1.289-0.431,2.381-1.169,2.436c-0.738,0.051-1.414-0.954-1.508-2.242
			c-0.092-1.291,0.429-2.384,1.166-2.438C122.896,33.188,123.573,34.193,123.668,35.488z"/>
	</g>
	<path fill="#212529" d="M119.304,31.997l-0.669-0.851c0.105-0.08,2.622-2.02,6.702-0.357l-0.408,1.001
		C121.457,30.375,119.389,31.931,119.304,31.997z"/>
	<path fill="#212529" d="M112.508,32.332l-0.482-0.961c2.411-1.207,5.051-0.348,5.159-0.313l-0.338,1.024
		C116.823,32.072,114.511,31.334,112.508,32.332z"/>
	<path fill="#212529" d="M118.391,42.367c-1.346,0-2.32-0.635-2.525-1.677c-0.197-0.984,0.981-1.716,1.693-2.063l-0.307-4.145
		l1.072-0.08l0.364,4.909l-0.359,0.15c-0.76,0.313-1.421,0.83-1.406,1.016c0.113,0.569,0.813,0.869,1.77,0.797l0.091,1.076
		C118.65,42.367,118.518,42.367,118.391,42.367z"/>
	<path fill="#212529" d="M115.37,44.795c-0.902,0-1.459-0.059-1.527-0.064l0.111-1.077c0.055,0.009,5.502,0.542,10.947-1.998
		l0.459,0.974C121.362,44.497,117.448,44.795,115.37,44.795z"/>
	<g>
		<path fill="#57B7F7" d="M178.667,129.754l-5.361-47.958c0,0-14.895-10.728-26.063-14.151c0,0,8.713,28.865-7.831,45.925
			c-2.163,2.227-3.555,5.167-3.555,8.277v69.867l3.067,11.974h41.515l-9.963-26.616L178.667,129.754z"/>
	</g>
	<g>
		<g>
			<path fill="#FFFFFF" d="M173.381,197.697c-1.599,1.321-3.608,2.989-5.618,5.989h37.245l-12.149-12.172
				C192.858,191.515,178.521,193.455,173.381,197.697z"/>
		</g>
	</g>
	<path fill="#473293" d="M155.567,71.076c-2.82-1.39-5.678-2.618-8.326-3.433c0,0,8.818,28.865-7.725,45.925
		c-2.164,2.227-3.447,5.167-3.447,8.277v4.217C157.249,118.107,158.026,87.805,155.567,71.076z"/>
	<g>
		<path fill="#57B7F7" d="M173.306,81.796c-8.639,10.124-13.104,42.296,0,60.47c10.01,13.874,30.385,46.169,30.385,46.169
			l-14.002,2.934c4.979,3.639,8.767,7.319,11.574,12.319h53.396c-0.609-12-4.977-24.733-11.943-38.236
			C228.413,137.747,188.798,96.091,173.306,81.796z"/>
	</g>
	<path fill="#21226E" d="M237.028,188.5c-15.537-5.284-31.219-0.053-31.375,0l-0.35-1.019c0.161-0.06,16.19-5.399,32.074,0
		L237.028,188.5z"/>
	<path fill="#21226E" d="M207.24,184.135l-0.548-0.931c0.535-0.311,13.24-7.657,23.695-6.926l-0.074,1.079
		C220.175,176.635,207.37,184.061,207.24,184.135z"/>
	<g>
		<path fill="#57B7F7" d="M113.868,121.024c0.176-2.254-0.494-4.509-1.932-6.259c-11.089-13.54-4.442-40.269-0.74-44.146
			c0,0-21.152,11.175-40.138,29.647c-15.445,15.022,11.171,56.021,11.171,56.021l-0.675,22.178l-7.267,25.221h32.328l1.601-10.231
			L113.868,121.024z"/>
	</g>
	<path fill="#473293" d="M113.868,121.024c0.176-2.254-0.494-4.509-1.932-6.259c-11.089-13.54-4.442-40.269-0.74-44.146
		c0,0-3.285,1.735-8.414,4.964c-5.407,16.049-8.021,37.064,10.682,50.599L113.868,121.024z"/>
	
		<rect x="123.459" y="79.518" transform="matrix(-0.9988 -0.0498 0.0498 -0.9988 242.1571 234.2157)" fill="#212529" width="1.078" height="69.143"/>
	<path fill="#212529" d="M131.876,89.175c0-1.378-1.123-2.5-2.502-2.5c-1.38,0-2.505,1.122-2.505,2.5c0,1.384,1.125,2.51,2.505,2.51
		C130.753,91.684,131.876,90.558,131.876,89.175z M130.796,89.175c0,0.786-0.636,1.427-1.422,1.427
		c-0.788,0-1.425-0.641-1.425-1.427c0-0.78,0.637-1.421,1.425-1.421C130.16,87.754,130.796,88.394,130.796,89.175z"/>
	<path fill="#212529" d="M131.329,108.8c0-1.382-1.125-2.506-2.505-2.506c-1.38,0-2.502,1.124-2.502,2.506
		c0,1.381,1.122,2.501,2.502,2.501C130.204,111.301,131.329,110.18,131.329,108.8z M130.249,108.8c0,0.785-0.641,1.427-1.425,1.427
		c-0.786,0-1.423-0.642-1.423-1.427c0-0.784,0.637-1.425,1.423-1.425C129.608,107.375,130.249,108.015,130.249,108.8z"/>
	<g>
		<g>
			<path fill="#FFFFFF" d="M81.335,196.565c-5.14-4.246-19.479-6.187-19.479-6.187l-13.294,13.308h39.373
				C85.609,200.687,83.194,198.101,81.335,196.565z"/>
		</g>
	</g>
	<g>
		<path fill="#57B7F7" d="M65.026,190.231l-14.002-2.803c0,0,23.725-27.472,33.73-41.346c13.107-18.169,13.53-51.365,4.89-61.491
			C74.156,98.893,26.301,136.632,12,164.331c-7.203,13.96-11.635,27.355-12,39.355h52.732
			C55.599,198.687,59.612,194.188,65.026,190.231z"/>
	</g>
	<path fill="#21226E" d="M17.687,187.365c15.533-5.283,31.218-0.051,31.375,0l0.349-1.02c-0.161-0.056-16.19-5.396-32.073,0
		L17.687,187.365z"/>
	<path fill="#21226E" d="M47.476,183.001l0.545-0.931c-0.538-0.313-13.237-7.657-23.695-6.923l0.076,1.076
		C34.539,175.5,47.345,182.93,47.476,183.001z"/>
	<path fill="#21226E" d="M81.825,156.699c-0.51-0.502-12.286-12.534-0.125-39.844l1.052,0.47
		c-11.839,26.587-0.24,38.435-0.12,38.553L81.825,156.699z"/>
	<g>
		
			<path fill="#FFFFFF" stroke="#21226E" stroke-width="1.5" stroke-linecap="round" stroke-linejoin="round" stroke-miterlimit="10" d="
			M87.935,203.187c-2.325-2.717-4.74-5.336-6.6-6.871c-5.14-4.246-19.479-6.312-19.479-6.312"/>
	</g>
	<g>
		
			<path fill="#FFFFFF" stroke="#21226E" stroke-width="1.5" stroke-linecap="round" stroke-linejoin="round" stroke-miterlimit="10" d="
			M192.858,191.14c0,0-14.34,2.064-19.479,6.308c-1.599,1.321-3.607,3.442-5.619,5.739"/>
	</g>
</g>
</svg>
