<?xml version="1.0" encoding="utf-8"?>
<!-- Generator: Adobe Illustrator 16.0.0, SVG Export Plug-In . SVG Version: 6.00 Build 0)  -->
<!DOCTYPE svg PUBLIC "-//W3C//DTD SVG 1.1//EN" "http://www.w3.org/Graphics/SVG/1.1/DTD/svg11.dtd">
<svg version="1.1" id="Слой_1" xmlns="http://www.w3.org/2000/svg" xmlns:xlink="http://www.w3.org/1999/xlink" x="0px" y="0px"
	 width="595.28px" height="841.89px" viewBox="0 0 595.28 841.89" enable-background="new 0 0 595.28 841.89" xml:space="preserve">
<g>
	<path fill-rule="evenodd" clip-rule="evenodd" fill="#97998D" d="M298.801,50.076c56.169,0,112.338,0.003,168.508-0.007
		c2.981,0,5.969,0.041,8.849,0.846c3.454,0.964,6.925,1.791,10.476,2.315c0.795,0.118,1.608,0.518,2.276,0.984
		c1.026,0.716,2.128,1.161,3.319,1.468c1.413,0.365,2.759,0.879,3.863,1.889c0.223,0.203,0.478,0.421,0.756,0.503
		c2.414,0.715,4.149,2.515,6.141,3.886c1.557,1.072,2.926,2.42,4.367,3.658c0.749,0.643,1.532,1.26,2.199,1.982
		c1.236,1.337,2.42,2.725,3.582,4.129c0.727,0.878,1.37,1.825,2.053,2.739c0.273,0.366,0.604,0.701,0.818,1.098
		c1.369,2.544,2.902,4.988,4.196,7.585c2.376,4.774,3.418,9.917,4.637,15.021c0.281,1.177,0.393,2.407,0.457,3.62
		c0.104,1.977,0.145,3.96,0.145,5.941c0.006,84.75,0.006,169.499,0.003,254.248c0,1.523-0.063,3.048-0.07,4.571
		c-0.018,3.465-0.763,6.803-1.717,10.106c-0.17,0.586-0.383,1.163-0.501,1.759c-0.747,3.781-2.302,7.268-4.145,10.597
		c-1.281,2.313-2.435,4.737-4.24,6.74c-0.557,0.618-0.985,1.353-1.468,2.037c-0.219,0.311-0.38,0.677-0.646,0.938
		c-2.323,2.288-4.462,4.742-6.975,6.867c-1.921,1.626-3.954,3.102-5.935,4.629c-1.777,1.372-3.919,2.283-5.936,3.329
		c-0.666,0.346-1.461,0.433-2.166,0.717c-0.912,0.369-1.855,0.724-2.674,1.256c-1.053,0.687-2.152,1.092-3.39,1.248
		c-2.876,0.362-5.693,0.954-8.473,1.837c-1.72,0.547-3.579,0.717-5.393,0.891c-1.588,0.152-3.198,0.093-4.798,0.093
		c-38.26,0.004-76.518,0-114.777,0.015c-2.055,0.001-4.109,0.156-6.164,0.256c-1.266,0.061-2.291,0.589-3.271,1.423
		c-1.674,1.425-3.476,2.698-5.225,4.031c-0.364,0.277-0.739,0.538-1.105,0.812c-2.253,1.683-4.521,3.346-6.752,5.059
		c-1.867,1.433-3.691,2.925-5.534,4.39c-0.417,0.332-0.813,0.698-1.259,0.984c-2.306,1.482-4.431,3.196-6.566,4.909
		c-2.013,1.615-4.202,3.008-6.279,4.545c-1.707,1.263-3.322,2.653-5.053,3.88c-2.051,1.45-3.795,3.282-5.982,4.569
		c-1.233,0.726-2.298,1.735-3.445,2.609c-1.689,1.287-3.364,2.593-5.081,3.843c-2.211,1.609-4.334,3.334-6.614,4.856
		c-1.509,1.007-2.846,2.272-4.269,3.411c-0.712,0.57-1.44,1.121-2.167,1.673c-0.967,0.734-1.937,1.466-2.912,2.189
		c-0.427,0.316-0.868,0.613-1.309,0.912c-0.44,0.298-0.924,0.542-1.326,0.884c-2.199,1.873-4.463,3.648-6.861,5.272
		c-1.88,1.273-3.594,2.79-5.39,4.188c-0.418,0.326-0.867,0.614-1.308,0.909c-0.379,0.254-0.792,0.464-1.148,0.745
		c-1.853,1.458-3.663,2.972-5.544,4.393c-1.693,1.277-3.486,2.424-5.186,3.693c-1.707,1.274-3.344,2.641-5.029,3.944
		c-0.84,0.649-1.718,1.251-2.581,1.871c-0.124,0.089-0.287,0.139-0.381,0.25c-1.754,2.075-4.36,2.738-6.642,3.893
		c-2.43,1.229-4.983,1.194-7.431-0.237c-0.782-0.457-1.635-0.804-2.478-1.144c-3.743-1.51-6.129-4.168-6.817-8.183
		c-0.23-1.342-0.259-2.729-0.261-4.097c-0.017-14.861-0.011-29.724-0.011-44.585c0-7.088,0.001-14.176-0.001-21.264
		c0-0.686-0.015-1.371-0.034-2.057c-0.035-1.236-0.724-2.014-1.86-2.303c-1.027-0.262-2.093-0.407-3.151-0.499
		c-0.984-0.085-1.98-0.037-2.971-0.038c-25.532-0.001-51.063,0-76.594-0.002c-2.744,0-5.492,0.035-8.183-0.643
		c-0.517-0.13-1.049-0.214-1.553-0.384c-2.756-0.933-5.593-1.489-8.473-1.846c-1.082-0.135-2.088-0.463-2.96-1.117
		c-0.996-0.749-2.115-1.2-3.309-1.495c-1.498-0.37-2.907-0.912-4.057-1.994c-0.164-0.154-0.362-0.31-0.572-0.371
		c-2.42-0.701-4.159-2.499-6.142-3.882c-1.613-1.125-3.034-2.526-4.531-3.816c-0.633-0.545-1.242-1.117-1.865-1.676
		c-0.282-0.253-0.615-0.465-0.85-0.757c-1.908-2.365-3.916-4.661-5.657-7.146c-1.434-2.046-2.628-4.274-3.783-6.497
		c-2.803-5.394-4.286-11.229-5.37-17.157c-0.423-2.311-0.445-4.697-0.604-7.052c-0.066-0.986-0.015-1.98-0.015-2.972
		c0-84.063,0.01-168.126-0.021-252.189c-0.002-6.075,0.76-11.996,2.573-17.788c0.364-1.163,0.555-2.395,1.035-3.504
		c1.268-2.924,2.302-5.972,4.231-8.572c0.045-0.061,0.104-0.118,0.131-0.187c0.903-2.311,2.551-4.133,4.006-6.078
		c1.5-2.004,3.042-3.966,5.014-5.564c1.532-1.242,2.879-2.717,4.434-3.927c2.211-1.72,4.258-3.703,6.949-4.731
		c0.42-0.161,0.858-0.378,1.173-0.687c1.025-1.004,2.316-1.442,3.637-1.827c1.395-0.406,2.738-0.866,3.924-1.783
		c0.571-0.442,1.377-0.628,2.107-0.805c0.886-0.213,1.811-0.258,2.706-0.438c1.641-0.331,3.316-0.572,4.897-1.092
		c3.078-1.011,6.223-1.462,9.439-1.536c1.067-0.024,2.134-0.01,3.201-0.01C187.377,50.076,243.089,50.076,298.801,50.076z
		 M270.266,306.403c0-0.003,0-0.005,0-0.008c1.447,0,2.896,0.042,4.341-0.011c1.707-0.063,3.296-0.534,4.706-1.555
		c0.49-0.354,1.022-0.683,1.583-0.902c2.604-1.021,4.755-2.727,6.695-4.646c9.205-9.113,18.352-18.287,27.512-27.445
		c22.577-22.575,45.189-45.114,67.699-67.756c6.438-6.475,13.315-12.53,19.045-19.703c1.498-1.877,2.684-3.909,3.492-6.1
		c1.563-4.232,1.974-8.569,0.615-13.005c-0.518-1.693-1.274-3.229-2.018-4.813c-1.136-2.424-2.92-4.243-4.773-6.053
		c-1.264-1.235-2.618-2.302-4.354-2.836c-0.64-0.196-1.23-0.606-1.789-0.995c-1.227-0.854-2.579-1.343-4.059-1.36
		c-3.123-0.035-6.246-0.037-9.367,0.01c-1.479,0.022-2.819,0.529-4.042,1.398c-0.675,0.48-1.454,0.815-2.197,1.197
		c-0.54,0.279-1.19,0.42-1.63,0.808c-1.651,1.462-3.574,2.563-5.141,4.155c-5.719,5.81-11.516,11.544-17.281,17.31
		c-17.672,17.673-35.344,35.347-53.016,53.02c-7.651,7.651-15.297,15.308-22.96,22.947c-0.588,0.586-1.268,1.088-1.945,1.573
		c-0.613,0.44-1.317,0.462-1.925,0.011c-0.791-0.586-1.577-1.197-2.272-1.892c-11.702-11.682-23.387-23.38-35.082-35.069
		c-2.588-2.587-5.218-5.119-8.772-6.392c-0.419-0.15-0.789-0.457-1.16-0.722c-1.149-0.818-2.431-1.218-3.828-1.359
		c-3.426-0.348-6.847-0.301-10.266,0.071c-0.377,0.041-0.786,0.062-1.114,0.224c-2.244,1.108-4.471,2.252-6.703,3.385
		c-2.389,2.221-5.042,4.216-6.278,7.417c-0.135,0.351-0.406,0.647-0.561,0.993c-0.464,1.035-0.95,2.066-1.334,3.133
		c-0.283,0.784-0.455,1.614-0.617,2.436c-0.951,4.811-0.268,9.364,2.085,13.688c0.914,1.679,1.984,3.208,3.162,4.716
		c1.32,1.689,2.72,3.279,4.228,4.787c16.809,16.813,33.62,33.622,50.427,50.438c2.7,2.701,5.498,5.258,9.123,6.704
		c0.417,0.167,0.787,0.462,1.16,0.724c1.352,0.947,2.859,1.43,4.497,1.471C267.523,306.429,268.896,306.403,270.266,306.403z"/>
</g>
</svg>
