<?xml version="1.0" encoding="utf-8"?>
<!-- Generator: Adobe Illustrator 16.0.0, SVG Export Plug-In . SVG Version: 6.00 Build 0)  -->
<!DOCTYPE svg PUBLIC "-//W3C//DTD SVG 1.1//EN" "http://www.w3.org/Graphics/SVG/1.1/DTD/svg11.dtd">
<svg version="1.1" id="Слой_1" xmlns="http://www.w3.org/2000/svg" xmlns:xlink="http://www.w3.org/1999/xlink" x="0px" y="0px"
	 width="185.08px" height="273.501px" viewBox="0 0 185.08 273.501" enable-background="new 0 0 185.08 273.501"
	 xml:space="preserve">
<g>
	<g>
		<path fill="#EE7177" d="M183.595,241.355c3.48-17.166-0.246-27.328-0.246-27.328c1.744-17.387-0.306-27.335-0.306-27.335
			s-2.299-27.881-2.052-47.005c0.246-19.133-2.114-43.166-17.209-51.802l-23.163,67.262l6.698,118.354h35.158
			C184.446,258.466,183.595,241.355,183.595,241.355z"/>
	</g>
	<g>
		<path fill="#57B7F7" d="M45.927,218.714c-5.952,14.161-8.939,33.787-10.286,54.787h54.847l1.166-9.657l5.141-0.621l0.817,10.278
			h53.526c-0.166-32-1.735-54.685-1.735-54.685L45.927,218.714z"/>
	</g>
	<g>
		<rect x="95.591" y="222.587" fill="#FFFFFF" width="0.86" height="40.377"/>
		<path fill="#FFFFFF" d="M95.854,258.401c-11.743-4.8-7.642-26.87-7.461-27.808l0.845,0.163c-0.04,0.222-4.147,22.314,6.945,26.847
			L95.854,258.401z"/>
		<path fill="#FFFFFF" d="M151.009,264.553c-16.378-6.727-19.641-30.848-19.669-31.09l0.853-0.106
			c0.031,0.233,3.23,23.866,19.144,30.396L151.009,264.553z"/>
		<path fill="#FFFFFF" d="M36.385,267.032l-0.507-0.69c11.292-8.279,19.319-33.821,19.401-34.075l0.821,0.254
			C55.77,233.578,47.908,258.59,36.385,267.032z"/>
	</g>
	<path fill="#C8468B" d="M106.767,53.413l8.868,10.807l48.147,23.666l-12.11,77.515l6.585,70.989l-53.584,5.082
		c-3.585,0.386-6.76-2.32-6.948-5.919l-0.648-12.274l-1.395,11.802c-0.463,3.912-4.028,6.69-7.935,6.188l-52.718-5.625l12.33-77.763
		l-8.974-72.799l40.643-21.153l6.694-11.628L106.767,53.413z"/>
	<path fill="#EE7177" d="M156.977,222.587h-13.429v15.198l-0.898,0.083v-15.281h-21.771v17.347l-0.896,0.084v-17.431H98.207v15.002
		c-0.257-0.633-0.445-1.31-0.482-2.036l-0.41-7.792v-5.174H75.538v17.38l-0.896-0.095v-17.285H52.872v14.958l-0.899-0.095v-14.863
		h-14.87l0.142-0.895h14.729v-21.776H40.695l0.142-0.894h11.136v-21.777h-7.684l0.145-0.894h7.539V154.58h-5.021l-0.108-0.895h5.13
		V131.91h-7.813l-0.113-0.898h7.927v-21.772H41.363l-0.113-0.895h10.723V86.569H38.567l-0.109-0.898h13.515v-7.664l0.899-0.465
		v8.129h21.771V66.212l0.896-0.466v19.925h21.776v-24.83h0.893v24.83h21.776V66.356l0.896,0.444v18.87h21.771v-8.174l0.898,0.444
		v7.729h15.738l1.819,0.898h-17.558v21.775h17.038l-0.137,0.895h-16.901v21.772h13.497l-0.142,0.898h-13.355v21.775h9.956
		l-0.143,0.895h-9.813v21.771h9.142l0.079,0.894h-9.221v21.777h11.243l0.083,0.894h-11.326v21.776h13.344L156.977,222.587z
		 M74.643,199.916H52.872v21.776h21.771V199.916z M74.643,177.245H52.872v21.777h21.771V177.245z M74.643,154.58H52.872v21.771
		h21.771V154.58z M74.643,131.91H52.872v21.775h21.771V131.91z M74.643,109.239H52.872v21.772h21.771V109.239z M74.643,86.569
		H52.872v21.775h21.771V86.569z M97.314,199.916H75.538v21.776h21.776V199.916z M97.314,177.245H75.538v21.777h21.776V177.245z
		 M97.314,154.58H75.538v21.771h21.776V154.58z M97.314,131.91H75.538v21.775h21.776V131.91z M97.314,109.239H75.538v21.772h21.776
		V109.239z M97.314,86.569H75.538v21.775h21.776V86.569z M119.983,199.916H98.207v21.776h21.776V199.916z M119.983,177.245H98.207
		v21.777h21.776V177.245z M119.983,154.58H98.207v21.771h21.776V154.58z M119.983,131.91H98.207v21.775h21.776V131.91z
		 M119.983,109.239H98.207v21.772h21.776V109.239z M119.983,86.569H98.207v21.775h21.776V86.569z M142.649,199.916h-21.771v21.776
		h21.771V199.916z M142.649,177.245h-21.771v21.777h21.771V177.245z M142.649,154.58h-21.771v21.771h21.771V154.58z M142.649,131.91
		h-21.771v21.775h21.771V131.91z M142.649,109.239h-21.771v21.772h21.771V109.239z M142.649,86.569h-21.771v21.775h21.771V86.569z"
		/>
	<g>
		<path fill="#FFFFFF" d="M138.208,185.242l-68.12,4.102c-3.106,0.185-5.771-2.179-5.96-5.283l-2.759-45.864
			c-0.188-3.102,2.177-5.767,5.279-5.955l68.119-4.102c3.106-0.19,5.769,2.178,5.956,5.279l2.763,45.864
			C143.673,182.388,141.309,185.057,138.208,185.242z"/>
	</g>
	
		<polygon fill="#FFFFFF" stroke="#212529" stroke-width="1.5" stroke-linecap="round" stroke-linejoin="round" stroke-miterlimit="10" points="
		85.433,41.396 85.991,62.357 97.076,81.363 108.196,61.638 107.047,41.396 	"/>
	<path fill="#212529" d="M107.938,57.085l-0.891-15.688H85.433l0.162,6.097C88.438,51.457,95.783,59.376,107.938,57.085z"/>
	
		<path fill="#FFFFFF" stroke="#212529" stroke-width="1.5" stroke-linecap="round" stroke-linejoin="round" stroke-miterlimit="10" d="
		M105.837,164.652l14.904-6.895c0,0,2.424-7.824,4.471-11.177c2.052-3.356,6.324-5.854,7.64-5.593
		c1.244,0.247-2.792,4.35-2.792,4.35s-1.367,1.86-0.684,3.29c0.684,1.429,3.166,1.49,5.217,0.807c2.048-0.68,8.01-5.151,8.01-5.151
		s2.297,2.174,0.746,5.65c0,0,1.699,1.055,0.538,4.348c0,0,0.953,1.426-0.349,3.975c0,0,0.808,2.298-1.12,4.163
		c-1.928,1.862-9.69,3.848-15.279,3.291l-15.164,14.228L105.837,164.652z"/>
	<path fill="#EE7177" d="M116.766,193.288c0,0-17.39,13.592-31.8,18.159c0,0-26.929,11.277-43.973,15.539
		C19.377,232.39-0.05,222.012,0,199.622c0.063-27.347,3.393-96.331,38.386-114.54c0,0,12.018,53.616,8.974,72.799l-2.098,13.247
		c0,0,47.883-9.116,57.342-7.283L116.766,193.288z"/>
	<path fill="#447A5B" d="M85.967,164.622c-1.037,0.124-2.085,0.248-3.16,0.389C90.841,164.247,89.021,164.371,85.967,164.622z"/>
	<path fill="#FC867A" d="M111.047,84.791c-0.702,0-1.378-0.298-1.869-0.843l-5.344-5.932L98.07,83.9l-0.618-0.6l6.41-6.538
		l5.955,6.611c0.444,0.49,1.085,0.669,1.72,0.479c0.633-0.188,1.069-0.689,1.171-1.345l2.502-16.36l0.851,0.129l-2.501,16.362
		c-0.15,0.975-0.829,1.76-1.774,2.044C111.542,84.755,111.291,84.791,111.047,84.791z"/>
	<path fill="#FC867A" d="M82.861,84.689c-0.256,0-0.514-0.04-0.767-0.124c-0.936-0.301-1.582-1.098-1.685-2.072l-1.807-16.859
		l0.854-0.092l1.807,16.861c0.07,0.636,0.489,1.152,1.096,1.349s1.247,0.021,1.672-0.451l5.891-6.538l6.406,6.538l-0.615,0.6
		l-5.765-5.884l-5.276,5.859C84.196,84.406,83.541,84.689,82.861,84.689z"/>
	<path fill="#C8468B" d="M22.245,177.596l-0.508-0.694c12.946-9.476,23.223-6.323,23.655-6.186l-0.263,0.822
		C45.025,171.502,34.815,168.397,22.245,177.596z"/>
	<path fill="#C8468B" d="M39.112,168.884c-7.114-6.428-15.674-1.709-15.761-1.662l-0.423-0.749
		c0.092-0.051,9.188-5.063,16.762,1.771L39.112,168.884z"/>
	<path fill="#212529" d="M113.076,34.335l2.011-5.326c0,0,3.824-0.422,5.286-5.978c1.461-5.554,0.122-13.157-7.297-15.202
		c0,0,0.377-4.873-6.737-6.919c-7.116-2.048-9.357,0-9.357,0s-6.228-2.34-12.958,1.267c-6.727,3.605-7.314,18.645-3.802,29.529
		l3.668,0.4l0.134-9.464l9.549-4.679c0,0,4.484,6.041,9.355,6.434l7.308,4.968l0.615,5.56L113.076,34.335z"/>
	
		<path fill="#FFFFFF" stroke="#212529" stroke-width="1.5" stroke-linecap="round" stroke-linejoin="round" stroke-miterlimit="10" d="
		M114.403,29.009c-1.127-0.283-2.131-0.066-2.961,0.32c0.153-1.379,0.256-2.303,0.256-2.303c-4.189,0-7.698-4.576-7.698-4.576
		c-8.773-0.488-10.137-8.188-10.137-8.188c-4.873,5.752-11.596,6.923-11.596,6.923s0.052,3.803,0.04,8.508
		c-0.923-0.589-2.163-1.043-3.609-0.684c-3.03,0.756-0.394,9.627,3.849,9.402c1.001,6.014,4.854,12.396,13.752,12.396
		c9.668,0,13.257-8.155,14.127-12.399C114.744,38.818,117.46,29.772,114.403,29.009z"/>
	<polygon fill="#212529" points="98.212,35.794 94.877,35.794 96.153,28.798 97.041,28.962 95.957,34.892 98.212,34.892 	"/>
	<g>
		<path fill="#212529" d="M92.682,28.914c0,1.131-0.503,2.048-1.119,2.048c-0.615,0-1.118-0.917-1.118-2.048
			c0-1.135,0.503-2.051,1.118-2.051C92.179,26.863,92.682,27.779,92.682,28.914z"/>
		<path fill="#212529" d="M102.923,28.914c0,1.131-0.496,2.048-1.115,2.048c-0.617,0-1.119-0.917-1.119-2.048
			c0-1.135,0.502-2.051,1.119-2.051C102.427,26.863,102.923,27.779,102.923,28.914z"/>
	</g>
	<path fill="#212529" d="M88.088,39.356c0,0,1.707-3.73,7.648-3.73c7.489,0,8.86,3.73,8.86,3.73H88.088z"/>
	<path fill="#212529" d="M96.338,43.327c-1.83,0-3.067-0.458-3.144-0.487L93.514,42c0.025,0.011,2.604,0.956,5.764-0.011
		l0.261,0.861C98.368,43.211,97.272,43.327,96.338,43.327z"/>
	<path fill="#212529" d="M94.212,22.358c-3.908-1.064-7.286-0.014-7.322-0.004l-0.276-0.857c0.149-0.048,3.653-1.146,7.835-0.008
		L94.212,22.358z"/>
	<polygon fill="#C8468B" points="109.705,160.012 124.097,194.528 115.028,200.117 99.855,162.608 	"/>
</g>
</svg>
