<?xml version="1.0" encoding="utf-8"?>
<!-- Generator: Adobe Illustrator 16.0.0, SVG Export Plug-In . SVG Version: 6.00 Build 0)  -->
<!DOCTYPE svg PUBLIC "-//W3C//DTD SVG 1.1//EN" "http://www.w3.org/Graphics/SVG/1.1/DTD/svg11.dtd">
<svg version="1.1" id="Слой_1" xmlns="http://www.w3.org/2000/svg" xmlns:xlink="http://www.w3.org/1999/xlink" x="0px" y="0px"
	 width="249.667px" height="281.438px" viewBox="0 0 249.667 281.438" enable-background="new 0 0 249.667 281.438"
	 xml:space="preserve">
<g>
	<g>
		<g>
			<path fill="#473293" d="M3.454,281.438h35.158l6.698-118.354L22.146,95.822c-15.094,8.636-17.455,32.669-17.209,51.802
				c0.248,19.124-2.051,47.005-2.051,47.005s-2.051,9.948-0.307,27.335c0,0-3.727,10.162-0.246,27.328
				C2.333,249.292,1.482,266.402,3.454,281.438z"/>
		</g>
		<g>
			<path fill="#C8468B" d="M36.525,226.752c0,0-1.568,22.686-1.734,54.686h53.525l0.818-10.278l5.141,0.621l1.166,9.657h54.847
				c-1.347-21-4.334-40.626-10.286-54.787L36.525,226.752z"/>
		</g>
		<g>
			<rect x="89.478" y="230.523" fill="#FFFFFF" width="0.859" height="40.377"/>
			<path fill="#FFFFFF" d="M89.745,265.539c11.092-4.533,6.985-26.625,6.944-26.847l0.846-0.163
				c0.182,0.938,4.281,23.008-7.461,27.808L89.745,265.539z"/>
			<path fill="#FFFFFF" d="M34.591,271.689c15.914-6.53,19.113-30.163,19.145-30.396l0.854,0.106
				c-0.029,0.242-3.291,24.363-19.67,31.09L34.591,271.689z"/>
			<path fill="#FFFFFF" d="M129.829,240.457l0.821-0.254c0.082,0.254,8.109,25.796,19.4,34.075l-0.507,0.689
				C138.019,266.526,130.159,241.514,129.829,240.457z"/>
		</g>
		<path fill="#7B7DF4" d="M100.207,60.237l6.693,11.628l40.644,21.153l-8.974,72.799l12.33,77.763l-52.719,5.625
			c-3.906,0.502-7.472-2.275-7.935-6.188l-1.396-11.803l-0.647,12.274c-0.188,3.599-3.362,6.305-6.948,5.919l-53.584-5.082
			l6.586-70.989L22.146,95.822l48.147-23.666l8.868-10.807L100.207,60.237z"/>
		<path fill="#473293" d="M29.036,229.625H42.38v-21.775H31.054l0.082-0.895H42.38v-21.777h-9.222l0.079-0.894h9.143v-21.771h-9.814
			l-0.143-0.896h9.957v-21.775H29.025l-0.143-0.897H42.38v-21.772H25.478l-0.137-0.895H42.38V94.503H24.822l1.818-0.897h15.738
			v-7.729l0.898-0.443v8.174h21.771v-18.87l0.896-0.444v19.315H87.72v-24.83h0.893v24.83h21.775V73.682l0.896,0.466v19.459h21.771
			v-8.129l0.898,0.465v7.664h13.516l-0.109,0.897h-13.406v21.776h10.723l-0.113,0.895h-10.612v21.772h7.927l-0.113,0.898h-7.813
			v21.774h5.13l-0.108,0.896h-5.021v21.771h7.539l0.146,0.895h-7.685v21.776h11.136l0.143,0.895h-11.277v21.775h14.729l0.143,0.896
			h-14.87v14.862l-0.899,0.096v-14.958h-21.771v17.285l-0.896,0.095v-17.38H88.614v5.174l-0.41,7.792
			c-0.037,0.726-0.226,1.403-0.481,2.036v-15.002H65.946v17.431l-0.896-0.084v-17.347H43.279v15.281l-0.898-0.083v-15.198H28.952
			L29.036,229.625z M111.286,229.628h21.771v-21.775h-21.771V229.628z M111.286,206.958h21.771v-21.776h-21.771V206.958z
			 M111.286,184.287h21.771v-21.771h-21.771V184.287z M111.286,161.621h21.771v-21.774h-21.771V161.621z M111.286,138.947h21.771
			v-21.772h-21.771V138.947z M111.286,116.28h21.771V94.505h-21.771V116.28z M88.614,229.628h21.776v-21.775H88.614V229.628z
			 M88.614,206.958h21.776v-21.776H88.614V206.958z M88.614,184.287h21.776v-21.771H88.614V184.287z M88.614,161.621h21.776v-21.774
			H88.614V161.621z M88.614,138.947h21.776v-21.772H88.614V138.947z M88.614,116.28h21.776V94.505H88.614V116.28z M65.945,229.628
			H87.72v-21.775H65.945V229.628z M65.945,206.958H87.72v-21.776H65.945V206.958z M65.945,184.287H87.72v-21.771H65.945V184.287z
			 M65.945,161.621H87.72v-21.774H65.945V161.621z M65.945,138.947H87.72v-21.772H65.945V138.947z M65.945,116.28H87.72V94.505
			H65.945V116.28z M43.279,229.628H65.05v-21.775H43.279V229.628z M43.279,206.958H65.05v-21.776H43.279V206.958z M43.279,184.287
			H65.05v-21.771H43.279V184.287z M43.279,161.621H65.05v-21.774H43.279V161.621z M43.279,138.947H65.05v-21.772H43.279V138.947z
			 M43.279,116.28H65.05V94.505H43.279V116.28z"/>
		<g>
			<path fill="#FFFFFF" d="M42.443,187.219l2.763-45.863c0.187-3.102,2.851-5.47,5.956-5.279l68.119,4.102
				c3.102,0.188,5.467,2.854,5.279,5.955l-2.76,45.864c-0.188,3.104-2.854,5.468-5.959,5.283l-68.121-4.103
				C44.62,192.993,42.255,190.324,42.443,187.219z"/>
		</g>
		
			<polygon fill="#FFFFFF" stroke="#212529" stroke-width="1.5" stroke-linecap="round" stroke-linejoin="round" stroke-miterlimit="10" points="
			78.882,49.333 77.732,69.574 88.851,89.299 99.937,70.293 100.496,49.333 		"/>
		<path fill="#212529" d="M100.333,55.43l0.162-6.098H78.882l-0.892,15.688C90.144,67.312,97.49,59.393,100.333,55.43z"/>
		
			<path fill="#FFFFFF" stroke="#212529" stroke-width="1.5" stroke-linecap="round" stroke-linejoin="round" stroke-miterlimit="10" d="
			M73.954,187.874L58.79,173.646c-5.589,0.557-13.351-1.43-15.278-3.291c-1.929-1.865-1.121-4.163-1.121-4.163
			c-1.301-2.549-0.349-3.976-0.349-3.976c-1.161-3.293,0.538-4.348,0.538-4.348c-1.551-3.476,0.746-5.65,0.746-5.65
			s5.962,4.472,8.01,5.151c2.051,0.683,4.533,0.622,5.217-0.807c0.684-1.431-0.684-3.29-0.684-3.29s-4.036-4.104-2.792-4.351
			c1.315-0.261,5.588,2.237,7.64,5.594c2.047,3.353,4.471,11.177,4.471,11.177l14.904,6.895L73.954,187.874z"/>
		<path fill="#473293" d="M83.325,171.781c9.459-1.833,57.342,7.283,57.342,7.283l-2.098-13.247
			c-3.044-19.184,8.974-72.799,8.974-72.799c34.993,18.209,38.323,87.192,38.387,114.54c0.049,22.389-19.377,32.767-40.994,27.363
			c-17.043-4.262-43.973-15.539-43.973-15.539c-14.41-4.566-31.8-18.158-31.8-18.158L83.325,171.781z"/>
		<path fill="#447A5B" d="M103.122,172.947c-1.075-0.141-2.123-0.265-3.16-0.389C96.908,172.307,95.087,172.183,103.122,172.947z"/>
		<path fill="#473293" d="M74.142,92.618c-0.944-0.284-1.623-1.069-1.773-2.044l-2.501-16.362l0.851-0.129l2.502,16.36
			c0.103,0.656,0.539,1.157,1.172,1.345c0.635,0.19,1.275,0.011,1.72-0.479l5.954-6.611l6.41,6.538l-0.617,0.6l-5.764-5.884
			l-5.345,5.932c-0.491,0.546-1.167,0.844-1.868,0.844C74.638,92.727,74.386,92.691,74.142,92.618z"/>
		<path fill="#473293" d="M101.255,91.812l-5.277-5.859l-5.764,5.884l-0.615-0.6l6.406-6.538l5.891,6.538
			c0.425,0.472,1.064,0.647,1.672,0.451c0.607-0.197,1.025-0.713,1.096-1.35l1.807-16.86l0.854,0.092l-1.806,16.859
			c-0.104,0.974-0.75,1.771-1.686,2.071c-0.253,0.084-0.511,0.124-0.768,0.124C102.388,92.625,101.732,92.342,101.255,91.812z"/>
		<path fill="#7B7DF4" d="M140.798,179.474l-0.263-0.822c0.433-0.137,10.709-3.29,23.655,6.186l-0.508,0.694
			C151.113,176.333,140.904,179.438,140.798,179.474z"/>
		<path fill="#7B7DF4" d="M146.238,176.18c7.574-6.834,16.67-1.822,16.762-1.771l-0.423,0.749
			c-0.087-0.047-8.647-4.766-15.761,1.662L146.238,176.18z"/>
		<path fill="#212529" d="M75.077,42.861l0.615-5.561L83,32.333c4.871-0.393,9.355-6.434,9.355-6.434l9.549,4.679l0.134,9.464
			l3.668-0.399c3.513-10.885,2.925-25.925-3.802-29.529c-6.73-3.607-12.958-1.267-12.958-1.267s-2.241-2.049-9.356,0
			c-7.115,2.046-6.738,6.919-6.738,6.919c-7.418,2.045-8.758,9.647-7.297,15.201c1.463,5.557,5.287,5.979,5.287,5.979l2.01,5.326
			L75.077,42.861z"/>
		
			<path fill="#FFFFFF" stroke="#212529" stroke-width="1.5" stroke-linecap="round" stroke-linejoin="round" stroke-miterlimit="10" d="
			M75.501,46.344c0.87,4.244,4.459,12.399,14.127,12.399c8.898,0,12.751-6.382,13.752-12.396c4.243,0.225,6.879-8.646,3.85-9.402
			c-1.446-0.359-2.687,0.095-3.609,0.684c-0.012-4.705,0.04-8.508,0.04-8.508s-6.724-1.171-11.597-6.923c0,0-1.363,7.7-10.137,8.188
			c0,0-3.509,4.576-7.697,4.576c0,0,0.103,0.924,0.256,2.304c-0.83-0.387-1.834-0.604-2.961-0.32
			C68.468,37.708,71.183,46.754,75.501,46.344z"/>
		<polygon fill="#212529" points="87.716,42.828 89.972,42.828 88.888,36.898 89.775,36.734 91.052,43.73 87.716,43.73 		"/>
		<g>
			<path fill="#212529" d="M94.366,34.799c0.614,0,1.118,0.916,1.118,2.052c0,1.131-0.504,2.048-1.118,2.048
				c-0.616,0-1.119-0.917-1.119-2.048C93.247,35.715,93.75,34.799,94.366,34.799z"/>
			<path fill="#212529" d="M84.121,34.799c0.617,0,1.119,0.916,1.119,2.052c0,1.131-0.502,2.048-1.119,2.048
				c-0.619,0-1.115-0.917-1.115-2.048C83.005,35.715,83.501,34.799,84.121,34.799z"/>
		</g>
		<path fill="#212529" d="M81.333,47.292c0,0,1.371-3.729,8.86-3.729c5.941,0,7.648,3.729,7.648,3.729H81.333z"/>
		<path fill="#212529" d="M86.39,50.786l0.262-0.861c3.16,0.968,5.738,0.022,5.764,0.012l0.319,0.84
			c-0.077,0.029-1.313,0.487-3.144,0.487C88.656,51.263,87.56,51.147,86.39,50.786z"/>
		<path fill="#212529" d="M91.48,29.425c4.182-1.138,7.686-0.04,7.834,0.009l-0.275,0.856c-0.036-0.01-3.414-1.06-7.322,0.004
			L91.48,29.425z"/>
		<polygon fill="#7B7DF4" points="86.073,170.544 70.9,208.052 61.832,202.464 76.222,167.948 		"/>
	</g>
	<g>
		
			<polygon fill="#FFFFFF" stroke="#473293" stroke-width="1.6963" stroke-linecap="round" stroke-linejoin="round" stroke-miterlimit="10" points="
			223.616,49.286 173.093,73.988 170.548,23.118 194.539,8.579 219.982,21.665 		"/>
		
			<line fill="none" stroke="#473293" stroke-width="1.6963" stroke-linecap="round" stroke-linejoin="round" stroke-miterlimit="10" x1="222.343" y1="48.559" x2="171.49" y2="23.231"/>
		
			<line fill="none" stroke="#473293" stroke-width="1.6963" stroke-linecap="round" stroke-linejoin="round" stroke-miterlimit="10" x1="209.187" y1="41.288" x2="213.199" y2="18.177"/>
		
			<line fill="none" stroke="#473293" stroke-width="1.6963" stroke-linecap="round" stroke-linejoin="round" stroke-miterlimit="10" x1="186.489" y1="30.46" x2="204.515" y2="13.713"/>
		
			<line fill="none" stroke="#473293" stroke-width="1.6963" stroke-linecap="round" stroke-linejoin="round" stroke-miterlimit="10" x1="175.785" y1="71.757" x2="196.173" y2="36.932"/>
		
			<line fill="none" stroke="#473293" stroke-width="1.6963" stroke-linecap="round" stroke-linejoin="round" stroke-miterlimit="10" x1="172.423" y1="60.637" x2="176.657" y2="25.769"/>
		
			<line fill="none" stroke="#473293" stroke-width="1.6963" stroke-linecap="round" stroke-linejoin="round" stroke-miterlimit="10" x1="187.978" y1="66.708" x2="215.041" y2="44.923"/>
		
			<line fill="none" stroke="#473293" stroke-width="1.6963" stroke-linecap="round" stroke-linejoin="round" stroke-miterlimit="10" x1="231.734" y1="43.352" x2="249.667" y2="46.5"/>
		
			<line fill="none" stroke="#473293" stroke-width="1.6963" stroke-linecap="round" stroke-linejoin="round" stroke-miterlimit="10" x1="228.584" y1="59.591" x2="243.607" y2="68.609"/>
		
			<line fill="none" stroke="#473293" stroke-width="1.6963" stroke-linecap="round" stroke-linejoin="round" stroke-miterlimit="10" x1="216.709" y1="65.401" x2="222.285" y2="82.127"/>
		
			<line fill="none" stroke="#473293" stroke-width="1.6963" stroke-linecap="round" stroke-linejoin="round" stroke-miterlimit="10" x1="171.587" y1="14.811" x2="159.902" y2="0.848"/>
		
			<line fill="none" stroke="#473293" stroke-width="1.6963" stroke-linecap="round" stroke-linejoin="round" stroke-miterlimit="10" x1="159.099" y1="25.646" x2="143.78" y2="17.137"/>
		
			<line fill="none" stroke="#473293" stroke-width="1.6963" stroke-linecap="round" stroke-linejoin="round" stroke-miterlimit="10" x1="159.993" y1="38.836" x2="142.722" y2="42.363"/>
	</g>
</g>
</svg>
