<?xml version="1.0" encoding="utf-8"?>
<!-- Generator: Adobe Illustrator 16.0.0, SVG Export Plug-In . SVG Version: 6.00 Build 0)  -->
<!DOCTYPE svg PUBLIC "-//W3C//DTD SVG 1.1//EN" "http://www.w3.org/Graphics/SVG/1.1/DTD/svg11.dtd">
<svg version="1.1" id="Слой_1" xmlns="http://www.w3.org/2000/svg" xmlns:xlink="http://www.w3.org/1999/xlink" x="0px" y="0px"
	 width="249.667px" height="281.437px" viewBox="0 0 249.667 281.437" enable-background="new 0 0 249.667 281.437"
	 xml:space="preserve">
<g>
	<g>
		<g>
			<path fill="#473293" d="M248.181,249.292c3.48-17.166-0.246-27.328-0.246-27.328c1.744-17.387-0.306-27.335-0.306-27.335
				s-2.299-27.881-2.052-47.005c0.246-19.133-2.114-43.166-17.209-51.802l-23.163,67.262l6.698,118.354h35.158
				C249.033,266.402,248.181,249.292,248.181,249.292z"/>
		</g>
		<g>
			<path fill="#C8468B" d="M110.513,226.65c-5.952,14.161-8.939,33.787-10.286,54.787h54.847l1.166-9.657l5.141-0.621l0.817,10.278
				h53.526c-0.166-32-1.735-54.685-1.735-54.685L110.513,226.65z"/>
		</g>
		<g>
			<rect x="160.177" y="230.523" fill="#FFFFFF" width="0.86" height="40.377"/>
			<path fill="#FFFFFF" d="M160.441,266.337c-11.743-4.8-7.642-26.87-7.461-27.808l0.845,0.163
				c-0.04,0.222-4.147,22.314,6.945,26.847L160.441,266.337z"/>
			<path fill="#FFFFFF" d="M215.595,272.489c-16.378-6.727-19.641-30.848-19.669-31.09l0.853-0.106
				c0.031,0.233,3.23,23.866,19.144,30.396L215.595,272.489z"/>
			<path fill="#FFFFFF" d="M100.971,274.968l-0.507-0.69c11.292-8.279,19.319-33.821,19.401-34.075l0.821,0.254
				C120.356,241.514,112.495,266.526,100.971,274.968z"/>
		</g>
		<path fill="#7B7DF4" d="M171.353,61.349l8.868,10.807l48.147,23.666l-12.11,77.515l6.585,70.989l-53.584,5.082
			c-3.585,0.386-6.76-2.32-6.948-5.919l-0.648-12.274l-1.395,11.802c-0.463,3.912-4.028,6.69-7.935,6.188l-52.718-5.625
			l12.33-77.763l-8.974-72.799l40.643-21.153l6.694-11.628L171.353,61.349z"/>
		<path fill="#473293" d="M221.563,230.523h-13.429v15.198l-0.898,0.083v-15.281h-21.771v17.347l-0.896,0.084v-17.431h-21.776
			v15.002c-0.257-0.633-0.445-1.31-0.482-2.036l-0.41-7.792v-5.174h-21.776v17.38l-0.896-0.095v-17.285h-21.771v14.958l-0.899-0.095
			v-14.863h-14.87l0.142-0.895h14.729v-21.776h-11.277l0.142-0.894h11.136v-21.777h-7.684l0.145-0.894h7.539v-21.771h-5.021
			l-0.108-0.895h5.13v-21.775h-7.813l-0.113-0.898h7.927v-21.772H105.95l-0.113-0.895h10.723V94.505h-13.406l-0.109-0.898h13.515
			v-7.664l0.899-0.465v8.129h21.771V74.148l0.896-0.466v19.925h21.776v-24.83h0.893v24.83h21.776V74.292l0.896,0.444v18.87h21.771
			v-8.174l0.898,0.444v7.729h15.738l1.819,0.898h-17.558v21.775h17.038l-0.137,0.895h-16.901v21.772h13.497l-0.142,0.898h-13.355
			v21.775h9.956l-0.143,0.895h-9.813v21.771h9.142l0.079,0.894h-9.221v21.777h11.243l0.083,0.894h-11.326v21.776h13.344
			L221.563,230.523z M139.229,207.852h-21.771v21.776h21.771V207.852z M139.229,185.181h-21.771v21.777h21.771V185.181z
			 M139.229,162.516h-21.771v21.771h21.771V162.516z M139.229,139.846h-21.771v21.775h21.771V139.846z M139.229,117.175h-21.771
			v21.772h21.771V117.175z M139.229,94.505h-21.771v21.775h21.771V94.505z M161.901,207.852h-21.776v21.776h21.776V207.852z
			 M161.901,185.181h-21.776v21.777h21.776V185.181z M161.901,162.516h-21.776v21.771h21.776V162.516z M161.901,139.846h-21.776
			v21.775h21.776V139.846z M161.901,117.175h-21.776v21.772h21.776V117.175z M161.901,94.505h-21.776v21.775h21.776V94.505z
			 M184.57,207.852h-21.776v21.776h21.776V207.852z M184.57,185.181h-21.776v21.777h21.776V185.181z M184.57,162.516h-21.776v21.771
			h21.776V162.516z M184.57,139.846h-21.776v21.775h21.776V139.846z M184.57,117.175h-21.776v21.772h21.776V117.175z M184.57,94.505
			h-21.776v21.775h21.776V94.505z M207.236,207.852h-21.771v21.776h21.771V207.852z M207.236,185.181h-21.771v21.777h21.771V185.181
			z M207.236,162.516h-21.771v21.771h21.771V162.516z M207.236,139.846h-21.771v21.775h21.771V139.846z M207.236,117.175h-21.771
			v21.772h21.771V117.175z M207.236,94.505h-21.771v21.775h21.771V94.505z"/>
		<g>
			<path fill="#FFFFFF" d="M202.794,193.178l-68.12,4.102c-3.106,0.185-5.771-2.179-5.96-5.283l-2.759-45.864
				c-0.188-3.102,2.177-5.767,5.279-5.955l68.119-4.102c3.106-0.19,5.769,2.178,5.956,5.279l2.763,45.864
				C208.259,190.324,205.895,192.993,202.794,193.178z"/>
		</g>
		
			<polygon fill="#FFFFFF" stroke="#212529" stroke-width="1.5" stroke-linecap="round" stroke-linejoin="round" stroke-miterlimit="10" points="
			150.019,49.333 150.578,70.293 161.663,89.299 172.783,69.574 171.633,49.333 		"/>
		<path fill="#212529" d="M172.524,65.021l-0.891-15.688h-21.614l0.162,6.097C153.025,59.393,160.37,67.312,172.524,65.021z"/>
		
			<path fill="#FFFFFF" stroke="#212529" stroke-width="1.5" stroke-linecap="round" stroke-linejoin="round" stroke-miterlimit="10" d="
			M170.423,172.588l14.904-6.895c0,0,2.424-7.824,4.471-11.177c2.052-3.356,6.324-5.854,7.64-5.593
			c1.244,0.247-2.792,4.35-2.792,4.35s-1.367,1.86-0.684,3.29c0.684,1.429,3.166,1.49,5.217,0.807c2.048-0.68,8.01-5.151,8.01-5.151
			s2.297,2.174,0.746,5.65c0,0,1.699,1.055,0.538,4.348c0,0,0.953,1.426-0.349,3.975c0,0,0.808,2.298-1.12,4.163
			c-1.928,1.862-9.69,3.848-15.279,3.291l-15.164,14.228L170.423,172.588z"/>
		<path fill="#473293" d="M181.352,201.224c0,0-17.39,13.592-31.8,18.159c0,0-26.929,11.277-43.973,15.539
			c-21.616,5.403-41.043-4.975-40.993-27.364c0.063-27.347,3.393-96.331,38.386-114.54c0,0,12.018,53.616,8.974,72.799
			l-2.098,13.247c0,0,47.883-9.116,57.342-7.283L181.352,201.224z"/>
		<path fill="#447A5B" d="M150.553,172.558c-1.037,0.124-2.085,0.248-3.16,0.389C155.427,172.183,153.607,172.307,150.553,172.558z"
			/>
		<path fill="#473293" d="M175.633,92.727c-0.702,0-1.378-0.298-1.869-0.843l-5.344-5.932l-5.764,5.884l-0.618-0.6l6.41-6.538
			l5.955,6.611c0.444,0.49,1.085,0.669,1.72,0.479c0.633-0.188,1.069-0.689,1.171-1.345l2.502-16.36l0.851,0.129l-2.501,16.362
			c-0.15,0.975-0.829,1.76-1.774,2.044C176.128,92.691,175.877,92.727,175.633,92.727z"/>
		<path fill="#473293" d="M147.448,92.625c-0.256,0-0.514-0.04-0.767-0.124c-0.936-0.301-1.582-1.098-1.685-2.072L143.19,73.57
			l0.854-0.092l1.807,16.861c0.07,0.636,0.489,1.152,1.096,1.349s1.247,0.021,1.672-0.451l5.891-6.538l6.406,6.538l-0.615,0.6
			l-5.765-5.884l-5.276,5.859C148.783,92.342,148.127,92.625,147.448,92.625z"/>
		<path fill="#7B7DF4" d="M86.832,185.532l-0.508-0.694c12.946-9.476,23.223-6.323,23.655-6.186l-0.263,0.822
			C109.611,179.438,99.402,176.333,86.832,185.532z"/>
		<path fill="#7B7DF4" d="M103.699,176.82c-7.114-6.428-15.674-1.709-15.761-1.662l-0.423-0.749
			c0.092-0.051,9.188-5.063,16.762,1.771L103.699,176.82z"/>
		<path fill="#212529" d="M177.663,42.271l2.011-5.326c0,0,3.824-0.422,5.286-5.978c1.461-5.554,0.122-13.157-7.297-15.202
			c0,0,0.377-4.873-6.737-6.919c-7.116-2.048-9.357,0-9.357,0s-6.228-2.34-12.958,1.267c-6.727,3.605-7.314,18.645-3.802,29.529
			l3.668,0.4l0.134-9.464l9.549-4.679c0,0,4.484,6.041,9.355,6.434l7.308,4.968l0.615,5.56L177.663,42.271z"/>
		
			<path fill="#FFFFFF" stroke="#212529" stroke-width="1.5" stroke-linecap="round" stroke-linejoin="round" stroke-miterlimit="10" d="
			M178.99,36.945c-1.127-0.283-2.131-0.066-2.961,0.32c0.153-1.379,0.256-2.303,0.256-2.303c-4.189,0-7.698-4.576-7.698-4.576
			c-8.773-0.488-10.137-8.188-10.137-8.188c-4.873,5.752-11.596,6.923-11.596,6.923s0.052,3.803,0.04,8.508
			c-0.923-0.589-2.163-1.043-3.609-0.684c-3.03,0.756-0.394,9.627,3.849,9.402c1.001,6.014,4.854,12.396,13.752,12.396
			c9.668,0,13.257-8.155,14.127-12.399C179.331,46.754,182.046,37.708,178.99,36.945z"/>
		<polygon fill="#212529" points="162.798,43.73 159.463,43.73 160.74,36.734 161.627,36.898 160.543,42.828 162.798,42.828 		"/>
		<g>
			<path fill="#212529" d="M157.268,36.85c0,1.131-0.503,2.048-1.119,2.048c-0.615,0-1.118-0.917-1.118-2.048
				c0-1.135,0.503-2.051,1.118-2.051C156.765,34.799,157.268,35.715,157.268,36.85z"/>
			<path fill="#212529" d="M167.509,36.85c0,1.131-0.496,2.048-1.115,2.048c-0.617,0-1.119-0.917-1.119-2.048
				c0-1.135,0.502-2.051,1.119-2.051C167.013,34.799,167.509,35.715,167.509,36.85z"/>
		</g>
		<path fill="#212529" d="M152.674,47.292c0,0,1.707-3.73,7.648-3.73c7.489,0,8.86,3.73,8.86,3.73H152.674z"/>
		<path fill="#212529" d="M160.924,51.263c-1.83,0-3.067-0.458-3.144-0.487l0.319-0.84c0.025,0.011,2.604,0.956,5.764-0.011
			l0.261,0.861C162.955,51.147,161.859,51.263,160.924,51.263z"/>
		<path fill="#212529" d="M158.798,30.294c-3.908-1.064-7.286-0.014-7.322-0.004l-0.276-0.857c0.149-0.048,3.653-1.146,7.835-0.008
			L158.798,30.294z"/>
		<polygon fill="#7B7DF4" points="174.292,167.948 188.683,202.464 179.615,208.053 164.442,170.544 		"/>
	</g>
	<g>
		
			<polygon fill="#FFFFFF" stroke="#473293" stroke-width="1.6963" stroke-linecap="round" stroke-linejoin="round" stroke-miterlimit="10" points="
			30.532,21.665 55.976,8.579 79.967,23.118 77.421,73.988 26.899,49.286 		"/>
		
			<line fill="none" stroke="#473293" stroke-width="1.6963" stroke-linecap="round" stroke-linejoin="round" stroke-miterlimit="10" x1="79.025" y1="23.231" x2="28.171" y2="48.559"/>
		
			<line fill="none" stroke="#473293" stroke-width="1.6963" stroke-linecap="round" stroke-linejoin="round" stroke-miterlimit="10" x1="37.316" y1="18.177" x2="41.328" y2="41.288"/>
		
			<line fill="none" stroke="#473293" stroke-width="1.6963" stroke-linecap="round" stroke-linejoin="round" stroke-miterlimit="10" x1="45.999" y1="13.713" x2="64.026" y2="30.46"/>
		
			<line fill="none" stroke="#473293" stroke-width="1.6963" stroke-linecap="round" stroke-linejoin="round" stroke-miterlimit="10" x1="54.341" y1="36.932" x2="74.73" y2="71.757"/>
		
			<line fill="none" stroke="#473293" stroke-width="1.6963" stroke-linecap="round" stroke-linejoin="round" stroke-miterlimit="10" x1="73.858" y1="25.769" x2="78.091" y2="60.637"/>
		
			<line fill="none" stroke="#473293" stroke-width="1.6963" stroke-linecap="round" stroke-linejoin="round" stroke-miterlimit="10" x1="35.474" y1="44.923" x2="62.537" y2="66.708"/>
		
			<line fill="none" stroke="#473293" stroke-width="1.6963" stroke-linecap="round" stroke-linejoin="round" stroke-miterlimit="10" x1="0.848" y1="46.5" x2="18.781" y2="43.352"/>
		
			<line fill="none" stroke="#473293" stroke-width="1.6963" stroke-linecap="round" stroke-linejoin="round" stroke-miterlimit="10" x1="6.907" y1="68.609" x2="21.93" y2="59.591"/>
		
			<line fill="none" stroke="#473293" stroke-width="1.6963" stroke-linecap="round" stroke-linejoin="round" stroke-miterlimit="10" x1="28.23" y1="82.127" x2="33.805" y2="65.401"/>
		
			<line fill="none" stroke="#473293" stroke-width="1.6963" stroke-linecap="round" stroke-linejoin="round" stroke-miterlimit="10" x1="90.613" y1="0.848" x2="78.927" y2="14.811"/>
		
			<line fill="none" stroke="#473293" stroke-width="1.6963" stroke-linecap="round" stroke-linejoin="round" stroke-miterlimit="10" x1="106.735" y1="17.137" x2="91.416" y2="25.646"/>
		
			<line fill="none" stroke="#473293" stroke-width="1.6963" stroke-linecap="round" stroke-linejoin="round" stroke-miterlimit="10" x1="107.792" y1="42.363" x2="90.522" y2="38.836"/>
	</g>
</g>
</svg>
