<?xml version="1.0" encoding="utf-8"?>
<!-- Generator: Adobe Illustrator 16.0.0, SVG Export Plug-In . SVG Version: 6.00 Build 0)  -->
<!DOCTYPE svg PUBLIC "-//W3C//DTD SVG 1.1//EN" "http://www.w3.org/Graphics/SVG/1.1/DTD/svg11.dtd">
<svg version="1.1" id="Слой_1" xmlns="http://www.w3.org/2000/svg" xmlns:xlink="http://www.w3.org/1999/xlink" x="0px" y="0px"
	 width="688.567px" height="406.887px" viewBox="0 0 688.567 406.887" enable-background="new 0 0 688.567 406.887"
	 xml:space="preserve">
<g>
	<path fill="#F0A955" d="M86.043,96.328c0,0-4.52-22.166-1.56-24.316c2.962-2.155,11.431,21.916,11.431,21.916
		s21.618-9.608,24.261-5.898c2.646,3.717-14.366,15.257-14.366,15.257s18.054,17.823,15.352,22.833
		c-2.698,5.014-24.351-12.372-24.351-12.372s-11.593,23.967-17.879,23.194c-6.282-0.771,3.733-25.851,3.733-25.851
		s-23.082-1.792-24.697-6.629C56.355,99.628,86.043,96.328,86.043,96.328z"/>
	
		<polygon fill="none" stroke="#C8468B" stroke-width="1.6963" stroke-linecap="round" stroke-linejoin="round" stroke-miterlimit="10" points="
		485.999,45.537 465.645,74.35 483.821,82.705 467.463,116.577 501.629,81.053 483.639,69.259 505.266,49.994 	"/>
	<g>
		<path fill="#473293" d="M623.165,185.02c0.393,3.725,14.493,8.021,28.269,9.294c13.778,1.28,17.225,1.593,22.99,1.33
			c5.775-0.27,19.672-7.534,11.773-14.544c-7.905-7.017-18.503-0.777-29.742-0.617c-11.238,0.158-15.657,0.291-21.801,0.255
			C628.509,180.699,622.598,179.616,623.165,185.02z"/>
		<path fill="#473293" d="M621.245,166.803c1.157,2.545,18.678-4.021,29.418-8.898c10.74-4.889,22.245-12.24,15.994-19.767
			c-6.253-7.526-14.223,1.563-26.836,11.046C627.208,158.666,619.47,162.892,621.245,166.803z"/>
	</g>
	<g>
		<path fill="#473293" d="M56.795,357.768c-7.437,2.01,1.605,24.146,7.65,32.697c5.544,7.84,11.962,12.789,15.864,16.24h9.238
			c-3.17-5.088-8.328-12.219-11.988-20.504C71.109,371.604,64.232,355.756,56.795,357.768z"/>
		<path fill="#473293" d="M1.745,385.479c-5.62,10.904,2.882,14.437,17.627,20.478c0.583,0.238,1.205,0.49,1.843,0.748h34.925
			c-7.206-4.339-16.111-8.901-23.174-13.222C18.03,384.344,7.363,374.574,1.745,385.479z"/>
	</g>
	<g>
		<g>
			<g>
				<path fill="#C8468B" d="M193.285,359.771l-77.878-25.598l-5.716,20.15c0,0-10.501,20.802-20.19,52.381h106.069
					C195.619,386.404,195.046,368.658,193.285,359.771z"/>
			</g>
			<path fill="#C8468B" d="M115.407,334.174l77.878,25.598c0.805,4.064,1.363,9.992,1.728,17.161
				c-31.335-0.61-69.574-22.026-83.09-30.477L115.407,334.174z"/>
			
				<path fill="none" stroke="#473293" stroke-width="1.6963" stroke-linecap="round" stroke-linejoin="round" stroke-miterlimit="10" d="
				M181.439,358.817c0,0-1.697,18.958,13.987,29.068"/>
			
				<path fill="none" stroke="#473293" stroke-width="1.6963" stroke-linecap="round" stroke-linejoin="round" stroke-miterlimit="10" d="
				M176.334,356.367c0,0-3.538,26.761,19.166,36.971"/>
			
				<path fill="none" stroke="#473293" stroke-width="1.6963" stroke-linecap="round" stroke-linejoin="round" stroke-miterlimit="10" d="
				M135.558,406.039c-0.273-14.435,0-12.701,0-12.701l6.806-45.959"/>
			
				<path fill="none" stroke="#473293" stroke-width="1.6963" stroke-linecap="round" stroke-linejoin="round" stroke-miterlimit="10" d="
				M136.237,346.565c0,0-3.129,16.885-4.083,23.415c-0.953,6.538,4.967,12.813,4.967,12.813"/>
			
				<line fill="none" stroke="#473293" stroke-width="1.6963" stroke-linecap="round" stroke-linejoin="round" stroke-miterlimit="10" x1="154.21" y1="400.342" x2="112.548" y2="387.136"/>
			
				<line fill="none" stroke="#473293" stroke-width="1.6963" stroke-linecap="round" stroke-linejoin="round" stroke-miterlimit="10" x1="113.774" y1="393.737" x2="152.985" y2="402.726"/>
		</g>
		<g>
			
				<path fill="#FFFFFF" stroke="#212529" stroke-width="1.5" stroke-linecap="round" stroke-linejoin="round" stroke-miterlimit="10" d="
				M71.971,209.843c0,0-13.589-22.44-15.556-28.47c-1.964-6.034-3.449-14.646-5.368-14.783c-1.922-0.146,0.353,4.37-1.642,5.185
				c-1.992,0.823-4.882-9.628-5.268-14.871c-0.383-5.243-2.846-4.552-3.901-0.771c0,0-3.178-1.396-3.267,3.716
				c0,0-1.184-2-2.268-0.546c-1.084,1.455,0.095,5.112,0.095,5.112s-1.898-3.039-2.43-2.398c-0.53,0.632-1.804,4.792,11.606,21.809
				l5.565,32.948L71.971,209.843z"/>
			<path fill="#7B7DF4" d="M190.677,232.065c0,0-27.386-12.66-42.911-12.049c-15.519,0.61-61.877,13.272-61.877,13.272
				l-13.273-28.652l-27.777,12.93c0,0,14.094,65.963,26.348,65.963c12.252,0,52.688-10.414,52.688-10.414
				s-5.309,43.494-9.804,50.032c-4.489,6.536-6.126,15.322-1.429,17.766c4.698,2.457,73.927,22.673,83.732,21.858
				c9.804-0.822,5.517-1.433,7.146-11.642c1.635-10.217,14.911-49.835,14.911-49.835l16.336-44.111
				C234.767,257.184,208.696,239.136,190.677,232.065z"/>
			<path fill="#7B7DF4" d="M177.38,339.691c22.264-8.784,25.324-23.285,25.12-35.945c-0.201-12.661,13.548-28.178,13.548-28.178
				l7.004,13.256l-4.621,12.471c0,0-13.276,39.618-14.911,49.835c-1.629,10.209,2.658,10.819-7.146,11.642
				c-7.261,0.604-47.089-10.326-69.188-17.032C141.067,346.425,159.844,346.606,177.38,339.691z"/>
			
				<path fill="#FFFFFF" stroke="#212529" stroke-width="1.5" stroke-linecap="round" stroke-linejoin="round" stroke-miterlimit="10" d="
				M202.5,333.836c0,0-5.852-0.814-6.943-5.308c-1.091-4.493-0.68-14.887-4.763-17.25c-4.088-2.356-9.534-5.266-9.534,0
				c0,0-2.996,2.749-2.043,5.438c0,0-1.463,1.325-0.187,5.273c0,0-1.312,2.183,0.73,4.218c2.045,2.044,3.682,9.803,8.851,9.396
				l12.664,11.438L202.5,333.836z"/>
			<path fill="#473293" d="M212.744,318.738c0.443-1.392,0.878-2.744,1.297-4.041l-9.169-21.525
				c-0.001,0.002-0.001,0.004-0.002,0.006l-2.37-5.562c-0.351-0.829-1.072-1.434-1.94-1.638c-0.872-0.209-1.789,0.016-2.473,0.59
				l-14.627,12.406l-7.792-24.274c-0.291-0.907-1.024-1.605-1.946-1.854c-0.92-0.247-1.904-0.015-2.612,0.617l-17.886,16.028
				l-7.509-27.204c-0.262-0.953-1-1.693-1.948-1.964c-0.945-0.263-1.971-0.015-2.691,0.663l-17.782,16.659
				c-0.31,2.327-0.729,5.402-1.233,8.872l19.467-18.238l7.476,27.095c0.263,0.938,0.989,1.68,1.92,1.95
				c0.938,0.276,1.948,0.049,2.675-0.604l18.035-16.165l7.752,24.157c0.29,0.895,1.004,1.586,1.912,1.846
				c0.902,0.256,1.876,0.043,2.592-0.559l14.93-12.668l12.606,29.581c0.304-0.97,0.605-1.925,0.906-2.871
				c0.129-0.407,0.26-0.817,0.388-1.214C212.726,318.798,212.734,318.768,212.744,318.738z"/>
			<path fill="#876D1E" d="M189.31,242.58c-7.927-3.047-9.656-8.144-9.023-11.758c0.26-1.498,1.835-2.371,3.243-1.802
				c4.332,1.743,7.147,3.045,7.147,3.045c4.028,1.578,8.465,3.717,12.923,6.073c1.221,0.647,1.552,2.239,0.719,3.338
				C202.312,244.138,197.438,245.709,189.31,242.58z"/>
			
				<path fill="none" stroke="#362B59" stroke-width="1.6963" stroke-linecap="round" stroke-linejoin="round" stroke-miterlimit="10" d="
				M119.042,241.39c0,0-0.546,20.011,2.724,29.953"/>
			
				<line fill="none" stroke="#362B59" stroke-width="1.6963" stroke-linecap="round" stroke-linejoin="round" stroke-miterlimit="10" x1="130.343" y1="239.622" x2="125.848" y2="259.881"/>
			
				<line fill="none" stroke="#362B59" stroke-width="1.6963" stroke-linecap="round" stroke-linejoin="round" stroke-miterlimit="10" x1="85.889" y1="233.289" x2="92.426" y2="247.787"/>
			<path fill="#7B7DF4" d="M234.767,257.184c-15.822-11.729-26.423,20.834-22.808,41.457c3.609,20.631,11.034,39.617,11.034,39.617
				l-23.35-7.76l-5.72,19.199c0,0,32.879,27.16,45.743,36.554c12.868,9.396,38.804,10.413,32.27-27.158
				C265.402,321.519,252.125,270.048,234.767,257.184z"/>
			<path fill="#7B7DF4" d="M216.048,316.717c7.498,1.725,10.876,14.145,20.115,16.844c10.246,2.994,13.174,14.295,13.174,14.295
				l-26.344-9.598C222.993,338.258,219.437,329.16,216.048,316.717z"/>
			
				<path fill="none" stroke="#5C4715" stroke-width="1.6963" stroke-linecap="round" stroke-linejoin="round" stroke-miterlimit="10" d="
				M256.064,358.343"/>
			
				<path fill="none" stroke="#5C4715" stroke-width="1.6963" stroke-linecap="round" stroke-linejoin="round" stroke-miterlimit="10" d="
				M249.337,347.855"/>
			
				<path fill="none" stroke="#362B59" stroke-width="1.6963" stroke-linecap="round" stroke-linejoin="round" stroke-miterlimit="10" d="
				M221.32,257.839c0,0-16.799,16.454-6.679,53.439"/>
			
				<path fill="none" stroke="#362B59" stroke-width="1.6963" stroke-linecap="round" stroke-linejoin="round" stroke-miterlimit="10" d="
				M120.388,323.227c0,0,17.372-4.959,23.502-4.051"/>
			<g>
				
					<path fill="#FFFFFF" stroke="#212529" stroke-width="1.5" stroke-linecap="round" stroke-linejoin="round" stroke-miterlimit="10" d="
					M188.591,180.114c0,0,7.983-1.716,16.347,4.327c5.388,4.343,7.38,10.204,7.38,10.204l-2.369,9.62c0,0,2.944-3.199,6.13-3.78
					c3.178-0.582,2.465,9.476-5.382,10.478l-3.018,28.076c-0.346,1.849-1.731,3.324-3.553,3.768
					c-4.639,1.12-13.813,1.992-21.747-5.352c-1.261-1.165-1.889-2.866-1.73-4.574l1.106-11.97c0,0-5.47-1.02-6.821-10.051
					c-1.12-7.532,1.426-15.154,6.232-21.059l0,0C181.166,189.802,184.241,184.036,188.591,180.114z"/>
				
					<path fill="none" stroke="#212529" stroke-width="1.5" stroke-linecap="round" stroke-linejoin="round" stroke-miterlimit="10" d="
					M180.184,203.858l16.465,2.917c0,0-7.252,6.028-13.226,3.979C179.324,209.348,180.184,203.858,180.184,203.858z"/>
				<path fill="#212529" d="M181.961,220.307c6.309,0.684,14.004,0.269,20.979-4.688c-0.527,10.484-8.788,9.314-12.917,11.597
					c-4.135,2.277-4.92,4.351-9.25,4.327L181.961,220.307z"/>
				
					<line fill="none" stroke="#212529" stroke-width="1.5" stroke-linecap="round" stroke-linejoin="round" stroke-miterlimit="10" x1="179.063" y1="194.995" x2="178.438" y2="195.829"/>
				
					<line fill="none" stroke="#212529" stroke-width="1.5" stroke-linecap="round" stroke-linejoin="round" stroke-miterlimit="10" x1="181.528" y1="196.1" x2="181.013" y2="196.943"/>
				
					<line fill="none" stroke="#212529" stroke-width="1.5" stroke-linecap="round" stroke-linejoin="round" stroke-miterlimit="10" x1="197.084" y1="201.437" x2="197.065" y2="202.309"/>
				
					<line fill="none" stroke="#212529" stroke-width="1.5" stroke-linecap="round" stroke-linejoin="round" stroke-miterlimit="10" x1="199.742" y1="202.092" x2="199.85" y2="203.132"/>
				
					<path fill="#FFFFFF" stroke="#212529" stroke-width="1.5" stroke-linecap="round" stroke-linejoin="round" stroke-miterlimit="10" d="
					M188.198,194.631c0,0-3.723,4.449-3.699,5.956c0.025,1.505,2.223,1.359,2.223,1.359"/>
				<path fill="#EE7177" d="M182.227,184.951l8.046,2.808c0,0-2.264,8.8-7.674,7.7C177.188,194.361,180.99,186.45,182.227,184.951z"
					/>
				<path fill="#EE7177" d="M194.415,189.199l9.984,3.477c0,0-2.095,8.87-8.748,7.336
					C188.996,198.471,193.021,190.646,194.415,189.199z"/>
				
					<path fill="none" stroke="#EE7177" stroke-width="1.6963" stroke-linecap="round" stroke-linejoin="round" stroke-miterlimit="10" d="
					M189.172,190.688c0,0,1.897-0.668,3.585,1.252"/>
				<path fill="#473293" d="M217.28,184.071c0,0-3.452-12.601-19.112-17.787c-7.221-2.393-11.006-1.665-13.57,1.79
					c-2.56,3.447,0.168,5.933,0.168,5.933s-3.917,0.989-3.981,4.14c-0.065,3.141,3.253,5.568,10.328,5.771
					c7.084,0.205,7.956-0.813,10.355,0.168c3.251,1.332,9.919,9.971,9.919,9.971s-1.6,0.174-2.399,3.243
					c-0.797,3.067,0.961,6.966,0.961,6.966s5.432-5.054,7.021-3.89c1.588,1.155,0.708,4.131,0.708,4.131s8.69-7.222,8.556-13.062
					C226.099,185.607,220.511,183.569,217.28,184.071z"/>
				
					<line fill="none" stroke="#EE7177" stroke-width="1.6963" stroke-linecap="round" stroke-linejoin="round" stroke-miterlimit="10" x1="202.869" y1="196.361" x2="212.493" y2="202.1"/>
			</g>
		</g>
	</g>
	<g>
		<path fill="#EE7177" d="M574.857,385.242c4.022-2.905-5.323-24.625-5.323-24.625l-36.231-11.426l-8.006,57.514h52.698
			c-1.47-6.808-2.448-10.916-2.448-10.916C577.21,392.083,574.857,385.242,574.857,385.242z"/>
	</g>
	<g>
		<path fill="#EE7177" d="M463.433,330.482c0,0-4.106,13.419-5.421,41.799c-0.314,6.78,0.204,19.302,1.174,34.424h69.551
			l38.666-51.501L463.433,330.482z"/>
	</g>
	
		<path fill="none" stroke="#473293" stroke-width="1.6963" stroke-linecap="round" stroke-linejoin="round" stroke-miterlimit="10" d="
		M475.24,343.902c0,0-0.238,26.535-17.228,28.379"/>
	
		<line fill="none" stroke="#473293" stroke-width="1.6963" stroke-linecap="round" stroke-linejoin="round" stroke-miterlimit="10" x1="525.489" y1="405.706" x2="533.303" y2="349.191"/>
	
		<line fill="none" stroke="#473293" stroke-width="1.6963" stroke-linecap="round" stroke-linejoin="round" stroke-miterlimit="10" x1="507.232" y1="388.542" x2="532.322" y2="405.872"/>
	
		<line fill="none" stroke="#473293" stroke-width="1.6963" stroke-linecap="round" stroke-linejoin="round" stroke-miterlimit="10" x1="513.524" y1="379.431" x2="552.819" y2="398.999"/>
	<g>
		<g>
			<path fill="none" d="M276.066,406.705h1.603c0.137-3.963,0.261-6.349,0.261-6.349L276.066,406.705z"/>
			<path fill="#57B7F7" d="M345.606,255.181c0,0-23.743-2.188-41.477-3.823l-35.835,1.083c0,0-31.697,66.853-54.649,154.265h62.421
				l1.864-6.349c0,0-0.124,2.386-0.261,6.349H344.9C360.63,313.558,345.606,255.181,345.606,255.181z"/>
		</g>
		<path fill="#57B7F7" d="M299.252,273.332c20.784-1.978,38.893-10.56,47.07-14.986c-0.44-2.081-0.716-3.165-0.716-3.165
			s-23.743-2.188-41.477-3.823l-35.835,1.083c0,0-2.861,6.035-7.482,16.842C269.051,271.973,282.525,274.933,299.252,273.332z"/>
		
			<polyline fill="none" stroke="#473293" stroke-width="1.6963" stroke-linecap="round" stroke-linejoin="round" stroke-miterlimit="10" points="
			294.54,257.211 278.963,339.754 278.057,398.983 		"/>
		
			<path fill="none" stroke="#473293" stroke-width="1.6963" stroke-linecap="round" stroke-linejoin="round" stroke-miterlimit="10" d="
			M326.845,257.502c0,0,3.331,32.729,24.958,50.882"/>
		
			<path fill="none" stroke="#473293" stroke-width="1.6963" stroke-linecap="round" stroke-linejoin="round" stroke-miterlimit="10" d="
			M286.475,258.287c0,0-9.766,33.203,0.4,38.86"/>
		
			<path fill="none" stroke="#473293" stroke-width="1.6963" stroke-linecap="round" stroke-linejoin="round" stroke-miterlimit="10" d="
			M272.408,252.315c0,0-5.715,23.729-18.068,32.506"/>
		
			<line fill="none" stroke="#473293" stroke-width="1.6963" stroke-linecap="round" stroke-linejoin="round" stroke-miterlimit="10" x1="263.205" y1="320.577" x2="313.847" y2="323.749"/>
		
			<line fill="none" stroke="#473293" stroke-width="1.6963" stroke-linecap="round" stroke-linejoin="round" stroke-miterlimit="10" x1="266.731" y1="327.799" x2="300.851" y2="330.94"/>
	</g>
	<g>
		<g>
			
				<polygon fill="#FFFFFF" stroke="#212529" stroke-width="1.5" stroke-linecap="round" stroke-linejoin="round" stroke-miterlimit="10" points="
				588.085,316.022 600.84,363.676 649.568,376.807 633.815,306.994 			"/>
			<path fill="#473293" d="M585.551,188.643c0,0,18.65-9.697,11.384-19.739c3.607-8.503-3.758-10.127-12.499-17.25
				c-8.735-7.124-12.273-18.185-22.103-11.702c-9.837,6.483-3.34,20.773-3.106,24.289c0.234,3.518-2.68,8.883-2.68,8.883
				L585.551,188.643z"/>
			<path fill="#F0A955" d="M586.753,243.377l-4.159-24.55l-47.223-26.951l-16.323,17.519l-29.466,134.031
				c0,0,30.345,17.476,70.582,20.234L586.753,243.377z"/>
			<g>
				<path fill="#FFF1D4" d="M584.972,251.427l-0.402,1.83c-0.997-0.822-2.227-1.589-4.27-2.249c-3.07-0.996-4.806-0.738-6.647-0.47
					c-1.95,0.29-3.97,0.587-7.413-0.529c-3.442-1.113-4.908-2.544-6.317-3.92c-1.337-1.296-2.596-2.526-5.662-3.52
					c-3.066-0.996-4.81-0.74-6.653-0.47c-1.947,0.285-3.975,0.584-7.417-0.53c-3.442-1.119-4.908-2.544-6.321-3.923
					c-1.334-1.303-2.591-2.527-5.659-3.523c-3.069-0.991-4.81-0.738-6.653-0.465c-1.953,0.287-3.974,0.582-7.421-0.535
					c-0.102-0.031-0.184-0.07-0.281-0.102l0.367-1.664c0.145,0.052,0.281,0.104,0.434,0.154c3.069,0.996,4.816,0.74,6.654,0.469
					c1.954-0.284,3.978-0.584,7.423,0.538c3.444,1.115,4.904,2.536,6.318,3.915c1.338,1.302,2.595,2.531,5.663,3.523
					c3.069,0.995,4.808,0.737,6.649,0.469c1.953-0.29,3.977-0.582,7.42,0.531c3.442,1.116,4.901,2.54,6.317,3.923
					c1.334,1.296,2.593,2.524,5.662,3.516c3.063,0.996,4.802,0.739,6.648,0.47c1.945-0.289,3.969-0.587,7.412,0.534
					C582.687,250.002,583.963,250.696,584.972,251.427z"/>
				<path fill="#FFF1D4" d="M492.228,331.385c1.168,0.035,2.513,0.24,4.206,0.788c3.445,1.12,4.909,2.54,6.319,3.922
					c1.335,1.3,2.594,2.528,5.66,3.521c3.07,0.995,4.81,0.738,6.653,0.465c1.955-0.286,3.976-0.578,7.417,0.536
					c3.443,1.115,4.908,2.54,6.317,3.922c1.337,1.296,2.591,2.525,5.663,3.516c3.063,0.995,4.801,0.738,6.646,0.47
					c1.954-0.285,3.975-0.589,7.417,0.532c3.442,1.115,4.901,2.537,6.318,3.919c1.329,1.3,2.587,2.528,5.653,3.52
					c0.417,0.135,0.804,0.242,1.172,0.332l-0.362,1.654c-0.419-0.102-0.86-0.223-1.332-0.373c-3.441-1.119-4.9-2.544-6.317-3.922
					c-1.329-1.3-2.588-2.524-5.654-3.524c-3.069-0.992-4.81-0.734-6.647-0.465c-1.953,0.291-3.978,0.586-7.415-0.529
					c-3.443-1.115-4.91-2.545-6.317-3.921c-1.339-1.295-2.598-2.524-5.664-3.521c-3.065-0.995-4.805-0.739-6.648-0.469
					c-1.952,0.286-3.978,0.586-7.421-0.529c-3.441-1.118-4.9-2.545-6.317-3.922c-1.333-1.303-2.592-2.528-5.662-3.524
					c-1.667-0.537-2.94-0.705-4.055-0.703L492.228,331.385z"/>
				<path fill="#FFF1D4" d="M522.276,252.45c3.441,1.114,4.9,2.536,6.317,3.917c1.333,1.299,2.587,2.53,5.657,3.522
					c3.063,0.993,4.806,0.737,6.651,0.466c1.954-0.283,3.974-0.587,7.419,0.534c3.447,1.116,4.905,2.54,6.321,3.923
					c1.331,1.296,2.59,2.523,5.656,3.516c3.065,0.996,4.809,0.738,6.646,0.47c1.955-0.291,3.978-0.586,7.417,0.533
					c3.096,0.997,4.587,2.253,5.881,3.498l-0.427,1.935c-0.107-0.1-0.216-0.2-0.313-0.304c-1.339-1.3-2.598-2.524-5.664-3.521
					c-3.065-0.996-4.809-0.739-6.646-0.469c-1.951,0.285-3.972,0.587-7.413-0.529c-3.447-1.114-4.904-2.545-6.321-3.921
					c-1.331-1.3-2.59-2.526-5.656-3.522c-3.073-0.994-4.809-0.74-6.652-0.469c-1.954,0.287-3.974,0.586-7.421-0.527
					c-3.441-1.119-4.904-2.543-6.317-3.923c-1.334-1.299-2.592-2.527-5.658-3.523c-3.069-0.991-4.81-0.739-6.655-0.466
					c-1.61,0.234-3.284,0.466-5.748-0.085l0.365-1.651c2.169,0.481,3.628,0.28,5.137,0.06
					C516.806,251.628,518.825,251.327,522.276,252.45z"/>
				<path fill="#FFF1D4" d="M566.581,314.323c-1.335-1.3-2.598-2.526-5.66-3.521c-3.066-0.995-4.806-0.737-6.647-0.468
					c-1.949,0.285-3.97,0.584-7.415-0.529c-3.443-1.116-4.906-2.544-6.317-3.923c-1.335-1.297-2.594-2.523-5.659-3.52
					c-3.066-0.992-4.81-0.739-6.653-0.469c-1.953,0.286-3.974,0.585-7.417-0.531c-3.445-1.116-4.908-2.544-6.321-3.92
					c-1.333-1.304-2.592-2.529-5.658-3.524c-3.067-0.991-4.81-0.738-6.655-0.465c-0.535,0.077-1.078,0.155-1.653,0.204l0.383-1.742
					c0.347-0.04,0.683-0.086,1.024-0.139c1.953-0.286,3.974-0.585,7.425,0.533c3.441,1.117,4.904,2.54,6.317,3.921
					c1.333,1.299,2.596,2.528,5.661,3.519c3.066,0.993,4.806,0.74,6.646,0.47c1.956-0.288,3.979-0.583,7.425,0.534
					c3.443,1.113,4.9,2.54,6.317,3.921c1.333,1.295,2.588,2.526,5.66,3.518c3.069,0.996,4.806,0.737,6.646,0.47
					c1.953-0.292,3.974-0.591,7.413,0.531c3.445,1.115,4.908,2.536,6.321,3.918c0.868,0.848,1.716,1.664,3.045,2.405l-0.379,1.718
					C568.647,316.324,567.593,315.316,566.581,314.323z"/>
				<path fill="#FFF1D4" d="M515.814,272.383c3.444,1.113,4.904,2.536,6.317,3.917c1.333,1.299,2.592,2.529,5.66,3.522
					c3.073,0.996,4.807,0.736,6.649,0.466c1.953-0.289,3.977-0.584,7.421,0.534c3.441,1.115,4.904,2.539,6.316,3.92
					c1.338,1.297,2.597,2.526,5.662,3.522c3.066,0.991,4.81,0.734,6.647,0.466c1.95-0.293,3.974-0.592,7.415,0.532
					c3.443,1.113,4.902,2.54,6.317,3.917c0.409,0.396,0.817,0.788,1.265,1.168l-0.406,1.839c-0.791-0.587-1.428-1.194-2.043-1.794
					c-1.329-1.3-2.587-2.527-5.653-3.521c-3.076-0.996-4.81-0.736-6.648-0.47c-1.953,0.285-3.969,0.584-7.416-0.528
					c-3.442-1.116-4.905-2.545-6.317-3.923c-1.337-1.296-2.596-2.524-5.662-3.521c-3.069-0.991-4.806-0.74-6.651-0.469
					c-1.95,0.286-3.97,0.586-7.418-0.53c-3.443-1.117-4.903-2.543-6.317-3.921c-1.336-1.299-2.591-2.526-5.66-3.522
					c-3.069-0.992-4.813-0.74-6.657-0.466c-1.13,0.161-2.294,0.324-3.735,0.222l0.371-1.678c1.155,0.059,2.125-0.074,3.12-0.222
					C510.35,271.561,512.368,271.26,515.814,272.383z"/>
				<path fill="#FFF1D4" d="M554.46,330.729c-3.066-0.991-4.808-0.732-6.646-0.464c-1.953,0.29-3.965,0.586-7.416-0.528
					c-3.442-1.115-4.901-2.544-6.318-3.922c-1.329-1.296-2.587-2.525-5.657-3.521c-3.07-0.995-4.806-0.735-6.651-0.468
					c-1.953,0.287-3.974,0.586-7.419-0.533c-3.447-1.115-4.906-2.54-6.321-3.917c-1.331-1.299-2.59-2.53-5.655-3.524
					c-2.805-0.907-4.495-0.772-6.173-0.538l0.388-1.753c1.646-0.195,3.501-0.229,6.304,0.681c3.445,1.119,4.905,2.54,6.321,3.923
					c1.329,1.299,2.589,2.527,5.656,3.52c3.073,0.995,4.811,0.739,6.653,0.466c1.953-0.285,3.973-0.579,7.421,0.536
					c3.445,1.114,4.904,2.541,6.321,3.921c1.329,1.296,2.587,2.526,5.653,3.519c3.066,0.993,4.81,0.735,6.647,0.467
					c1.954-0.289,3.974-0.589,7.415,0.534c3.444,1.113,4.907,2.536,6.318,3.917c1.215,1.188,2.39,2.31,4.91,3.253l-0.367,1.666
					c-3.01-1.085-4.396-2.41-5.725-3.706C558.786,332.956,557.527,331.73,554.46,330.729z"/>
			</g>
			
				<path fill="#FFFFFF" stroke="#212529" stroke-width="1.5" stroke-linecap="round" stroke-linejoin="round" stroke-miterlimit="10" d="
				M579.238,190.277l-7.355,19.857l10.711,8.692c0,0-9.703,19.538-31.165,5.494c-21.457-14.044-16.058-32.445-16.058-32.445
				l13.897,6.148l8.879-15.723L579.238,190.277z"/>
			<path fill="#212529" d="M558.147,182.302l21.091,7.976l-3.038,8.21c-4.682,2.954-11.989,6.478-17.157,3.78
				c-4.304-2.253-5.901-6.544-6.465-10.105L558.147,182.302z"/>
			
				<line fill="none" stroke="#212529" stroke-width="1.5" stroke-linecap="round" stroke-linejoin="round" stroke-miterlimit="10" x1="570.208" y1="217.583" x2="558.369" y2="212.099"/>
			
				<line fill="none" stroke="#212529" stroke-width="1.5" stroke-linecap="round" stroke-linejoin="round" stroke-miterlimit="10" x1="542.01" y1="201.795" x2="549.465" y2="207.878"/>
			<path fill="#7B7DF4" d="M577.424,379.009l-29.704-12.065l34.874-148.116c0,0,20.349,13.015,31.281,27.608
				c10.932,14.596,25.713,63.342,25.713,63.342l-54.76,11.984l-2.827-9.266c0,0-0.271,22.896-2.094,30.409
				c-1.826,7.511-4.115,13.078-4.115,13.078S582.801,368.399,577.424,379.009z"/>
			
				<path fill="#FFFFFF" stroke="#212529" stroke-width="1.5" stroke-linecap="round" stroke-linejoin="round" stroke-miterlimit="10" d="
				M649.66,378.488c0.48,19.789-24.276,12.89-38.101,5.733c-13.829-7.157-38.007-23.458-38.007-23.458s-3.695,1.735-9.48-2.082
				c0,0-6.33,1.791-6.979,0.87c-0.654-0.92,6.704-4.947,6.704-4.947s-8.494,2.04-10.699,1.652c-2.196-0.395-2.21-2.541,0.253-3.647
				c2.464-1.097,10.835-2.515,10.835-2.515s-3.979-1.147-6.713-0.78c-2.725,0.371-4.836,2.523-5.269,1.469
				c-0.433-1.057,2.036-5.35,4.784-5.957c2.749-0.605,8.434-0.057,8.434-0.057s-4.575-2.857-7.701-2.516
				c-3.125,0.342-4.776,0.065-4.849-1.208c-0.067-1.28,4.852-2.295,7.887-2.481c3.038-0.188,20.948,11.225,20.948,11.225
				s32.771,5.837,44.813,8.89C638.56,361.732,649.285,363.109,649.66,378.488z"/>
			
				<path fill="none" stroke="#212529" stroke-width="1.5" stroke-linecap="round" stroke-linejoin="round" stroke-miterlimit="10" d="
				M641.772,380.858c0,0-2.766,4.308-9.261,3.86"/>
			<path fill="#42356E" d="M445.021,242.459c-5.343,1.181-9.941-12.774-11.923-16.336c-1.984-3.554,22.824-10.277,22.824-10.277
				l1.527,17.124C457.449,232.97,450.512,241.246,445.021,242.459z"/>
			
				<path fill="#FFFFFF" stroke="#212529" stroke-width="1.5" stroke-linecap="round" stroke-linejoin="round" stroke-miterlimit="10" d="
				M385.456,307.239c0,0-10.919-96.833,0.264-107.688c11.873-11.488,60.423-16.454,60.423-16.454l14.933,48.756l-48.479,0.749
				l-14.135,74.331c-0.09,0.617-0.146,0.941-0.146,0.941s2.753,6.262,4.202,9.854c1.426,3.591,1.584,8.243,0.13,8.053
				c-1.457-0.158-2.095-6.898-3.471-7c-1.348-0.135-1.292,4.077-0.385,8.095c0.903,4.045,2.919,13.938,1.506,14.316
				c-1.245,0.306-3.75-6.603-4.311-8.207c0.505,1.85,3.097,11.271,1.39,11.56c-1.895,0.295-6.139-12.101-6.139-12.101
				c-0.428,2.885,1.188,9.343-0.393,8.502c-1.575-0.863-4.471-11.478-4.471-11.478s-1.237,9.057-2.466,6.577
				c-1.229-2.507,0.954-23.814,1.45-27.371C385.406,308.287,385.436,307.784,385.456,307.239z"/>
			
				<path fill="none" stroke="#212529" stroke-width="1.5" stroke-linecap="round" stroke-linejoin="round" stroke-miterlimit="10" d="
				M390.325,211.533c0,0,7.457,0.506,6.065-11.088"/>
			
				<path fill="none" stroke="#212529" stroke-width="1.5" stroke-linecap="round" stroke-linejoin="round" stroke-miterlimit="10" d="
				M395.856,332.468c0,0-1.51-5.567-1.634-8.841"/>
			
				<path fill="none" stroke="#212529" stroke-width="1.5" stroke-linecap="round" stroke-linejoin="round" stroke-miterlimit="10" d="
				M391.166,332.882c0,0-0.629-3.515-0.559-7.982"/>
			
				<path fill="none" stroke="#212529" stroke-width="1.5" stroke-linecap="round" stroke-linejoin="round" stroke-miterlimit="10" d="
				M386.371,329.283c0,0,0.259-2.83,0.344-5.085"/>
			<path fill="#7B7DF4" d="M535.371,191.876l-32.285,164.039l-51.939-3.568c0,0,1.176-7.877,3.853-14.375
				c2.674-6.499-2.92-8.474,0.521-16.828c3.438-8.354-5.922-6.452-0.978-18.206c4.945-11.751,15.615-65.113,15.615-65.113
				l-25.137,4.635c0,0,17.212-0.417-0.293-60.484c0,0,35.638-9.256,44.902-9.762C498.889,171.706,535.371,191.876,535.371,191.876z"
				/>
			
				<path fill="none" stroke="#473293" stroke-width="1.6963" stroke-linecap="round" stroke-linejoin="round" stroke-miterlimit="10" d="
				M500.726,214.47c-0.036,0.477,1.09,18.849-27.64,22.442"/>
			
				<path fill="none" stroke="#473293" stroke-width="1.6963" stroke-linecap="round" stroke-linejoin="round" stroke-miterlimit="10" d="
				M505.115,226.941c0,0-9.66,13.26-25.691,15.019"/>
			
				<path fill="none" stroke="#473293" stroke-width="1.6963" stroke-linecap="round" stroke-linejoin="round" stroke-miterlimit="10" d="
				M506.185,243.802c0,0-20.958,13.194-33.056,17.934"/>
			
				<path fill="none" stroke="#473293" stroke-width="1.6963" stroke-linecap="round" stroke-linejoin="round" stroke-miterlimit="10" d="
				M594.992,261.82c0,0-4.39,22.715-7.273,30.608"/>
			
				<path fill="none" stroke="#473293" stroke-width="1.6963" stroke-linecap="round" stroke-linejoin="round" stroke-miterlimit="10" d="
				M608.786,248.198c0,0-6.912,23.671-15.476,38.029"/>
			<g>
				<path fill="#FFFFFF" d="M567.078,197.434c-1.904,0-3.619-0.379-5.096-1.127c-8.279-4.191-6.576-13.554-5.558-19.146l0.001-0.007
					c-0.827-0.711-2.445-2.653-2.032-6.746c0.334-3.305,1.694-4.482,2.856-4.482c1.222,0,2.163,1.166,2.396,2.97
					c0.177,1.355,0.276,2.588,0.333,3.568c2.313-3.278,7.167-10.006,10.146-13.054c0.142-0.146,0.336-0.226,0.536-0.226
					c0.046,0,0.093,0.005,0.14,0.014c0.247,0.046,0.454,0.213,0.551,0.444c0.059,0.14,6.04,13.994,16.545,13.996
					c0,0,0.001,0,0.002,0c0.516,0,1.043-0.034,1.567-0.101c0.032-0.004,0.063-0.006,0.095-0.006c0.251,0,0.489,0.127,0.628,0.341
					c0.157,0.241,0.162,0.551,0.014,0.797c-0.028,0.047-2.575,4.317-3.982,10.043c1.038-0.699,2.37-1.423,3.443-1.423
					c0.388,0,0.734,0.089,1.03,0.264c0.771,0.452,1,1.58,0.611,3.015c-0.676,2.489-2.983,5.168-6.453,5.168c0,0,0,0-0.001,0
					c-0.595,0-1.213-0.078-1.84-0.234C581.423,192.586,573.952,197.434,567.078,197.434z"/>
				<path fill="#212529" d="M570.661,159.934c0,0,6.098,14.454,17.236,14.454c0.543,0,1.096-0.034,1.664-0.106
					c0,0-3.228,5.347-4.5,12.256c0,0,2.87-2.498,4.603-2.498c0.242,0,0.461,0.049,0.647,0.159c1.361,0.798-0.529,6.787-5.459,6.787
					c-0.614,0-1.275-0.093-1.983-0.3c0,0-8.369,5.998-15.79,5.998c-1.669,0-3.29-0.303-4.757-1.046
					c-7.994-4.048-6.098-13.149-5.075-18.807c0,0-2.601-1.451-2.106-6.349c0.268-2.647,1.223-3.808,2.11-3.808
					c0.755,0,1.461,0.84,1.653,2.316c0.418,3.207,0.398,5.752,0.398,5.752S566.726,163.959,570.661,159.934 M589.561,174.281h0.005
					 M570.661,158.434c-0.4,0-0.788,0.16-1.073,0.451c-2.563,2.622-6.479,7.909-9.022,11.458c-0.048-0.491-0.106-1.009-0.176-1.546
					c-0.325-2.502-1.811-3.622-3.14-3.622c-0.723,0-3.119,0.372-3.602,5.157c-0.396,3.924,0.986,6.073,1.969,7.079
					c-1.057,5.836-2.559,15.217,6.027,19.564c1.583,0.802,3.412,1.208,5.435,1.208c6.743,0,13.992-4.485,16.082-5.879
					c0.574,0.12,1.14,0.181,1.691,0.181c3.863,0,6.428-2.966,7.176-5.721c0.484-1.781,0.126-3.225-0.958-3.86
					c-0.407-0.241-0.882-0.365-1.406-0.365c-0.71,0-1.492,0.253-2.241,0.61c1.316-4.413,3.143-7.614,3.394-8.044
					c0.156-0.236,0.247-0.52,0.247-0.824c0-0.825-0.665-1.495-1.489-1.5c-0.004,0-0.009,0-0.013,0c-0.021,0-0.041,0-0.061,0.001
					c-0.051,0.002-0.102,0.007-0.151,0.014c-0.485,0.061-0.974,0.092-1.453,0.092c-10.027,0-15.797-13.401-15.854-13.537
					c-0.195-0.463-0.609-0.797-1.103-0.891C570.848,158.442,570.754,158.434,570.661,158.434L570.661,158.434z"/>
			</g>
			
				<polyline fill="#FFFFFF" stroke="#212529" stroke-width="1.5" stroke-linecap="round" stroke-linejoin="round" stroke-miterlimit="10" points="
				571.609,178.515 568.669,181.99 569.944,183.115 			"/>
			
				<path fill="#FFFFFF" stroke="#212529" stroke-width="1.5" stroke-linecap="round" stroke-linejoin="round" stroke-miterlimit="10" d="
				M572.176,188.998l-8.68-5.85c0,0-2.663,4.034,0.439,6.316C567.041,191.744,572.176,188.998,572.176,188.998z"/>
			<g>
				<path fill="#42356E" d="M566.13,171.998c-0.501,0.848-0.46,1.803,0.092,2.127c0.549,0.327,1.408-0.094,1.906-0.944
					c0.502-0.849,0.464-1.803-0.09-2.128C567.483,170.727,566.632,171.147,566.13,171.998z"/>
				<path fill="#42356E" d="M577.241,179.836c-0.502,0.849-0.464,1.802,0.092,2.125c0.553,0.329,1.404-0.101,1.906-0.948
					c0.502-0.847,0.46-1.8-0.09-2.126C578.599,178.56,577.739,178.984,577.241,179.836z"/>
			</g>
			<g>
				<path fill="#F0A955" d="M575.599,178.126c-1.746,2.353-1.259,5.673,1.096,7.423c2.349,1.751,5.673,1.259,7.425-1.093
					c1.749-2.354,1.254-5.676-1.095-7.422C580.67,175.283,577.345,175.771,575.599,178.126z"/>
				<path fill="#F0A955" d="M564.2,169.655c-1.746,2.351-1.255,5.677,1.096,7.426c2.353,1.746,5.677,1.255,7.428-1.093
					c1.742-2.355,1.255-5.68-1.098-7.425C569.275,166.814,565.952,167.302,564.2,169.655z"/>
				
					<line fill="#FFFFFF" stroke="#F0A955" stroke-width="1.6963" stroke-linecap="round" stroke-linejoin="round" stroke-miterlimit="10" x1="575.599" y1="178.126" x2="572.724" y2="175.988"/>
			</g>
		</g>
		<g>
			
				<path fill="#FFFFFF" stroke="#212529" stroke-width="1.5" stroke-linecap="round" stroke-linejoin="round" stroke-miterlimit="10" d="
				M192.885,36.692c0,0-2.294-6.659-3.357-4.732c-1.062,1.928-1.202,3.433-1.202,3.433s-4.521-2.843-4.422-1.041
				c0.095,1.804-0.313,3.382-0.313,3.382s-3.414-3.098-3.461-1.199c-0.05,1.891,0.625,3.468,0.625,3.468s-3.356-3.345-2.6-0.239
				c0.758,3.105,2.047,1.453,2.088,5.824c0.04,4.363-1.754,14.188,1.832,19.198c0,0,12.358,45.652,16.559,52.233
				c4.198,6.588,48.914,51.05,48.914,51.05l17.892-32.245L217.3,103.82c0,0-21.726-40.068-24.282-46.626
				C190.462,50.633,193.881,39.182,192.885,36.692z"/>
			<path fill="#EE7177" d="M355.877,237.585c3.354,2-5.622,9.767-19.664,13.023l-6.766-17.147l22.044-3.19L355.877,237.585z"/>
			
				<path fill="#FFFFFF" stroke="#212529" stroke-width="1.5" stroke-linecap="round" stroke-linejoin="round" stroke-miterlimit="10" d="
				M341.423,234.81c0,0,0.311,12.842,0.845,19.977c0.534,7.134-38.298,11.344-73.85,3.744L341.423,234.81z"/>
			<path fill="#473293" d="M290.475,119.419c0,0-10.862-1.506-14.167-13.699c-3.303-12.188,4.81-32.943,17.747-32.006
				c12.838-8.929,17.201-6.885,21.713-3.687c4.51,3.2,9.263,10.64,16.653,7.272c7.393-3.358,20.401-8.66,27.47,1.099
				c7.064,9.751,8.035,8.835,15.562,9.526c7.523,0.69,19.579,4.334,26.415,16.602c6.837,12.26,25.74,0.887,31.921,23.474
				c0,0-5.227,11.867-16.657,15.169s-8.321,4.088-17.297,11.752c-8.969,7.663-7.965,7.12-16.395,8.887
				c-8.427,1.767-4.936,8.761-15.542,10.013c0,0-34.44-26.382-45.668-32.186C311.003,135.831,290.475,119.419,290.475,119.419z"/>
			<path fill="#EE7177" d="M300.057,142.137c0,0-5.988-2.741-9.878-2.597c-3.891,0.146-5.643,0.85-11.53-1.134
				c-5.888-1.986-17.874-8.705-17.874-8.705s-21.692,13.563-16.482,39.333l17.91,10.59c0,0-2.188,9.394,1.515,18.346
				c6.85,16.587,9.397,20.594,7.101,34.549c-2.298,13.947-8.905,21.772-8.765,23.809s25.643,7.082,54.221-4.777
				c28.579-11.869,31.563-16.82,40.437-12.465c0,0-3.707-27.487-2.038-36.438c1.67-8.953,23.467-33.248,23.467-33.248
				s2.678-5.229,5.246-16.668c2.575-11.438,1.153-42.628-10.598-40.476c-4.289,0.784-12.903,8.254-17.526,10.856
				c-4.625,2.61-12.008,11.374-12.008,11.374L300.057,142.137z"/>
			
				<path fill="none" stroke="#473293" stroke-width="1.6963" stroke-linecap="round" stroke-linejoin="round" stroke-miterlimit="10" d="
				M365.617,158.157c2.949,9.017,9.09,10.084,11.206,7.249"/>
			
				<path fill="none" stroke="#FFFFFF" stroke-width="1.6963" stroke-linecap="round" stroke-linejoin="round" stroke-miterlimit="10" d="
				M315.229,79.969c0,0,3.87,4.653,13.094,6.138c9.221,1.484,15.587-4.5,22.634-4.107c7.046,0.4,5.211,9.337,14.054,12.172
				c8.843,2.836,23.69,0.916,30.104,13.649"/>
			
				<path fill="none" stroke="#FFFFFF" stroke-width="1.6963" stroke-linecap="round" stroke-linejoin="round" stroke-miterlimit="10" d="
				M311.77,84.579c0,0,6.562,8.385,15.781,9.867c9.223,1.484,15.593-4.5,22.638-4.107c7.044,0.4,5.207,9.338,14.054,12.174
				c8.843,2.836,23.689,0.914,30.103,13.648"/>
			
				<path fill="none" stroke="#212529" stroke-width="1.5" stroke-linecap="round" stroke-linejoin="round" stroke-miterlimit="10" d="
				M189.798,45.049c0,0-5.27-5.962-5.91-4.501c-0.64,1.454,1.358,2.654,1.976,5.113c0.615,2.457-1.026,9.291,4.051,12.558"/>
			
				<path fill="#FFFFFF" stroke="#212529" stroke-width="1.5" stroke-linecap="round" stroke-linejoin="round" stroke-miterlimit="10" d="
				M293.953,87.619c0,0-4.719,5.468-5.167,10.318c-0.447,4.843-0.664,9.04-4.103,9.738c0,0,2.013,10.551,3.698,14.404
				c1.672,3.832,3.724,9.373,11.705,6.909l4.198,9.322c0,0-9.017,2.713-12.404,2.901c-3.393,0.196-9.37,15.664,10.539,17.329
				c19.916,1.665,31.622-13.773,40.833-24.056c0,0-8.426,1.753-15.065-1.221c-6.638-2.976-12.249-13.439-12.249-13.439
				s0.473-1.47,1.834-5.22c0,0,6.734-1.747,6.983-8.132c0.255-6.385-6.122-1.237-6.122-1.237S303.354,106.359,293.953,87.619z"/>
			
				<path fill="none" stroke="#212529" stroke-width="1.5" stroke-linecap="round" stroke-linejoin="round" stroke-miterlimit="10" d="
				M295.548,145.306c0,0,9.797-0.617,11.913,1.1"/>
			
				<path fill="none" stroke="#212529" stroke-width="1.5" stroke-linecap="round" stroke-linejoin="round" stroke-miterlimit="10" d="
				M317.558,144.21c0,0,8.635-4.661,11.277-3.993"/>
			<path fill="#212529" d="M299.421,128.489c4.857-1.912,11.329-4.204,13.837-7.409c-0.781,4.355-12.246,10.943-12.246,10.943
				L299.421,128.489z"/>
			
				<path fill="none" stroke="#212529" stroke-width="1.5" stroke-linecap="round" stroke-linejoin="round" stroke-miterlimit="10" d="
				M289.658,112.263l11.618-1.629c0,0,1.301,8.291-2.15,9.585C293.015,122.511,289.658,112.263,289.658,112.263z"/>
			
				<path fill="none" stroke="#212529" stroke-width="1.5" stroke-linecap="round" stroke-linejoin="round" stroke-miterlimit="10" d="
				M296.668,101.864c0,0,1.663-2.289,5.202,0.48"/>
			
				<path fill="none" stroke="#212529" stroke-width="1.5" stroke-linecap="round" stroke-linejoin="round" stroke-miterlimit="10" d="
				M292.155,101.173c0,0-1.457-1.198-3.707,0.169"/>
			
				<path fill="none" stroke="#473293" stroke-width="1.6963" stroke-linecap="round" stroke-linejoin="round" stroke-miterlimit="10" d="
				M350.858,140.668c0,0-8.131,22.775-1.985,35.479c6.145,12.704,17.01,4.604,17.01,4.604"/>
			
				<path fill="none" stroke="#473293" stroke-width="1.6963" stroke-linecap="round" stroke-linejoin="round" stroke-miterlimit="10" d="
				M339.187,165.771c0,0,2.153,19.168,17.327,20.564"/>
			
				<line fill="none" stroke="#473293" stroke-width="1.6963" stroke-linecap="round" stroke-linejoin="round" stroke-miterlimit="10" x1="336.966" y1="183.019" x2="349.18" y2="190.466"/>
			
				<path fill="#FFFFFF" stroke="#212529" stroke-width="1.5" stroke-linecap="round" stroke-linejoin="round" stroke-miterlimit="10" d="
				M397.329,94.789c0,0-20.2,12.887-25.909,17.889c-5.708,4.996-7.53,24.725-6.813,37.093c0.712,12.378,2.985,12.421,2.985,12.421
				s23.626-19.399,37.151-30.802c13.53-11.403,25.522-22.602,22.479-42.613c-3.047-20.007-25.724-70.292-25.724-70.292
				s-2.14-15.235-5.543-16.731c-3.402-1.491-10.414,1.402-13.438,1.295c-3.023-0.11-11.19,5.54-6.526,11.031
				c0,0-1.457,2.391-0.121,4.37c1.335,1.979,5.343,7.911,11.422,7.802L397.329,94.789z"/>
			
				<path fill="none" stroke="#473293" stroke-width="1.6963" stroke-linecap="round" stroke-linejoin="round" stroke-miterlimit="10" d="
				M338.719,203.786c0,0-24.703,28.079-32.462,31.918"/>
			
				<line fill="none" stroke="#473293" stroke-width="1.6963" stroke-linecap="round" stroke-linejoin="round" stroke-miterlimit="10" x1="333.857" y1="223.573" x2="299.761" y2="247.746"/>
			
				<path fill="none" stroke="#212529" stroke-width="1.5" stroke-linecap="round" stroke-linejoin="round" stroke-miterlimit="10" d="
				M375.99,14.079c0,0,8.701-4.422,10.934-3.04c2.232,1.388-5.84,5.563-5.84,5.563s3.975,1.854,4.374,4.843"/>
			<path fill="#362B59" d="M295.375,98.011c0,0,2.689-1.267,6.934-0.407l-0.317-2.232c0,0-4.374-0.407-6.883,1.506L295.375,98.011z"
				/>
			<path fill="#362B59" d="M293.048,98.271c0,0-0.803-1.271-6.94,0.255l0.1-2.254c0,0,4.763-1.084,6.997,0.859L293.048,98.271z"/>
		</g>
	</g>
</g>
</svg>
