<?xml version="1.0" encoding="utf-8"?>
<!-- Generator: Adobe Illustrator 16.0.0, SVG Export Plug-In . SVG Version: 6.00 Build 0)  -->
<!DOCTYPE svg PUBLIC "-//W3C//DTD SVG 1.1//EN" "http://www.w3.org/Graphics/SVG/1.1/DTD/svg11.dtd">
<svg version="1.1" id="Слой_1" xmlns="http://www.w3.org/2000/svg" xmlns:xlink="http://www.w3.org/1999/xlink" x="0px" y="0px"
	 width="299.852px" height="287.959px" viewBox="0 0 299.852 287.959" enable-background="new 0 0 299.852 287.959"
	 xml:space="preserve">
<path fill-rule="evenodd" clip-rule="evenodd" fill="#f0a955" d="M299.851,119.304c0.082-13.282-7.444-21.563-18.615-23.332
	c-21.819-3.455-43.62-7.026-65.438-10.488c-2.181-0.346-3.553-1.278-4.72-3.224c-14.123-23.557-28.321-47.069-42.579-70.544
	c-1.432-2.357-3.095-4.724-5.139-6.534c-9.854-8.72-24.337-6.151-31.469,5.59c-14.369,23.658-28.671,47.357-42.853,71.128
	c-1.452,2.433-3.202,3.347-5.775,3.752c-21.817,3.437-43.632,6.889-65.427,10.462c-10.115,1.658-16.875,8.911-17.756,18.842
	c-0.578,6.507,2,11.848,6.27,16.644c15.278,17.162,30.447,34.424,45.713,51.598c1.33,1.496,1.758,2.799,1.394,4.863
	c-4.22,23.973-8.418,47.949-12.306,71.977c-0.717,4.438-0.991,9.377,0.202,13.613c3.44,12.213,16.909,17.52,28.908,11.877
	c25.321-11.906,50.628-23.846,75.872-35.912c2.787-1.332,4.952-1.348,7.709,0.02c9.413,4.666,18.965,9.051,28.463,13.545
	c15.797,7.473,31.59,14.955,47.393,22.416c7.527,3.555,14.904,3.207,21.593-1.77c6.648-4.945,9.453-11.801,8.054-20.08
	c-4.182-24.74-8.396-49.475-12.715-74.191c-0.522-2.99-0.021-5.123,2.091-7.477c15.128-16.867,30.064-33.904,45.103-50.852
	C297.521,127.058,299.805,122.37,299.851,119.304z"/>
</svg>
